{"glyphs":{"0":{"ha":901,"x_min":0,"x_max":0,"o":"m 450 -11 b 857 486 700 -11 857 186 b 450 983 857 786 700 983 b 46 486 201 983 46 786 b 450 -11 46 186 201 -11 z m 265 486 b 450 796 265 683 329 796 b 638 486 571 796 638 683 b 450 178 638 289 571 178 b 265 486 329 178 265 289 z "},"1":{"ha":549,"x_min":0,"x_max":0,"o":"m 258 739 l 258 0 l 461 0 l 461 972 l 296 972 b 39 835 222 910 126 856 l 39 639 b 258 739 122 656 193 690 z "},"2":{"ha":807,"x_min":0,"x_max":0,"o":"m 39 0 l 739 0 l 739 189 l 346 189 l 501 310 b 740 668 667 436 740 544 b 386 983 740 854 599 983 b 38 611 179 983 17 819 l 246 597 b 386 796 236 717 292 796 b 521 668 467 796 521 744 b 375 454 521 603 476 538 l 39 175 z "},"3":{"ha":829,"x_min":0,"x_max":0,"o":"m 406 -11 b 783 313 632 -11 783 118 b 483 599 783 492 661 601 l 719 797 l 719 972 l 63 972 l 63 785 l 461 785 l 215 572 l 299 428 b 410 461 332 450 378 461 b 564 319 503 461 564 406 b 407 178 564 235 500 178 b 233 311 315 178 247 231 l 35 278 b 406 -11 53 104 201 -11 z "},"4":{"ha":890,"x_min":0,"x_max":0,"o":"m 513 0 l 732 0 l 732 186 l 849 186 l 849 374 l 732 374 l 732 972 l 499 972 l 33 374 l 33 186 l 513 186 z m 258 374 l 513 707 l 513 374 z "},"5":{"ha":813,"x_min":0,"x_max":0,"o":"m 407 -11 b 767 328 625 -11 767 124 b 449 646 767 517 636 646 b 274 582 383 646 317 621 l 307 785 l 693 785 l 693 972 l 147 972 l 64 422 l 224 389 b 389 476 267 449 319 476 b 547 328 486 476 547 418 b 399 178 547 238 489 178 b 240 296 317 178 258 224 l 43 260 b 407 -11 71 96 214 -11 z "},"6":{"ha":868,"x_min":0,"x_max":0,"o":"m 461 657 b 251 557 372 657 297 621 b 517 796 267 697 368 796 b 706 724 593 796 660 763 l 803 879 b 510 983 724 947 618 983 b 46 447 272 983 46 813 b 425 -11 46 178 203 -11 b 801 324 644 -11 801 129 b 461 657 801 518 660 657 z m 272 336 b 431 492 272 426 339 492 b 588 336 522 492 589 426 b 431 178 586 243 522 178 b 272 336 339 178 272 243 z "},"7":{"ha":785,"x_min":0,"x_max":0,"o":"m 142 0 l 363 0 b 753 785 381 208 538 488 l 753 972 l 42 972 l 42 785 l 526 785 b 142 0 324 519 174 239 z "},"8":{"ha":814,"x_min":0,"x_max":0,"o":"m 408 -11 b 769 288 606 -11 769 101 b 599 524 769 397 701 490 b 726 721 676 558 726 635 b 408 983 726 867 597 983 b 88 721 217 983 88 867 b 214 524 88 636 138 560 b 44 288 111 489 44 396 b 408 -11 44 101 208 -11 z m 257 292 b 407 419 257 369 317 419 b 556 292 499 419 556 369 b 407 165 556 215 499 165 b 257 292 317 165 257 215 z m 285 713 b 408 819 285 778 332 819 b 529 713 481 819 529 778 b 408 604 529 647 481 604 b 285 713 333 604 285 647 z "},"9":{"ha":878,"x_min":0,"x_max":0,"o":"m 417 315 b 626 415 506 315 581 351 b 361 176 611 275 510 176 b 172 249 285 176 218 210 l 75 93 b 368 -11 154 25 260 -11 b 832 525 606 -11 832 160 b 453 983 832 794 675 983 b 76 649 233 983 76 843 b 417 315 76 454 218 315 z m 290 636 b 447 794 292 729 356 794 b 606 636 539 794 606 729 b 447 481 606 546 539 481 b 290 636 356 481 289 546 z "},"\r":{"ha":332,"x_min":0,"x_max":0,"o":""}," ":{"ha":332,"x_min":0,"x_max":0,"o":""},"A":{"ha":960,"x_min":0,"x_max":0,"o":"m 481 685 l 588 383 l 374 383 z m 8 0 l 236 0 l 307 200 l 654 200 l 725 0 l 951 0 l 583 972 l 376 972 z "},"Á":{"ha":960,"x_min":0,"x_max":0,"o":"m 481 685 l 588 383 l 374 383 z m 8 0 l 236 0 l 307 200 l 654 200 l 725 0 l 951 0 l 583 972 l 376 972 z m 383 1050 l 526 1050 l 696 1256 l 464 1256 z "},"Ă":{"ha":960,"x_min":0,"x_max":0,"o":"m 481 685 l 588 383 l 374 383 z m 8 0 l 236 0 l 307 200 l 654 200 l 725 0 l 951 0 l 583 972 l 376 972 z m 281 1239 b 479 1046 281 1128 365 1046 b 681 1239 596 1046 681 1128 l 535 1239 b 479 1174 535 1199 514 1174 b 426 1239 446 1174 426 1199 z "},"Â":{"ha":960,"x_min":0,"x_max":0,"o":"m 481 685 l 588 383 l 374 383 z m 8 0 l 236 0 l 307 200 l 654 200 l 725 0 l 951 0 l 583 972 l 376 972 z m 235 1050 l 379 1050 l 479 1149 l 579 1050 l 724 1050 l 567 1256 l 390 1256 z "},"Ä":{"ha":960,"x_min":0,"x_max":0,"o":"m 481 685 l 588 383 l 374 383 z m 8 0 l 236 0 l 307 200 l 654 200 l 725 0 l 951 0 l 583 972 l 376 972 z m 239 1064 l 425 1064 l 425 1256 l 239 1256 z m 535 1064 l 722 1064 l 722 1256 l 535 1256 z "},"À":{"ha":960,"x_min":0,"x_max":0,"o":"m 481 685 l 588 383 l 374 383 z m 8 0 l 236 0 l 307 200 l 654 200 l 725 0 l 951 0 l 583 972 l 376 972 z m 243 1256 l 413 1050 l 556 1050 l 475 1256 z "},"Ā":{"ha":960,"x_min":0,"x_max":0,"o":"m 481 685 l 588 383 l 374 383 z m 8 0 l 236 0 l 307 200 l 654 200 l 725 0 l 951 0 l 583 972 l 376 972 z m 282 1079 l 675 1079 l 675 1232 l 282 1232 z "},"Ą":{"ha":960,"x_min":0,"x_max":0,"o":"m 481 685 l 588 383 l 374 383 z m 8 0 l 236 0 l 307 200 l 654 200 l 722 6 b 668 -121 690 -29 668 -79 b 840 -264 668 -207 738 -264 b 922 -254 875 -264 911 -258 l 904 -121 b 872 -125 900 -122 888 -125 b 824 -81 843 -125 824 -110 b 865 0 824 -50 849 -18 l 951 0 l 583 972 l 376 972 z "},"Å":{"ha":960,"x_min":0,"x_max":0,"o":"m 481 685 l 588 383 l 374 383 z m 8 0 l 236 0 l 307 200 l 654 200 l 725 0 l 951 0 l 583 972 l 376 972 z m 314 1179 b 481 1021 314 1089 385 1021 b 647 1179 578 1021 647 1089 b 481 1336 647 1269 578 1336 b 314 1179 385 1336 314 1269 z m 418 1179 b 481 1239 418 1214 444 1239 b 543 1179 517 1239 543 1214 b 481 1119 543 1143 517 1119 b 418 1179 444 1119 418 1143 z "},"Ǻ":{"ha":960,"x_min":0,"x_max":0,"o":"m 481 685 l 588 383 l 374 383 z m 8 0 l 236 0 l 307 200 l 654 200 l 725 0 l 951 0 l 583 972 l 376 972 z m 314 1179 b 481 1021 314 1089 385 1021 b 647 1179 578 1021 647 1089 b 561 1318 647 1242 614 1293 l 726 1519 l 494 1519 l 418 1326 b 314 1179 356 1304 314 1249 z m 418 1179 b 481 1239 418 1214 444 1239 b 543 1179 517 1239 543 1214 b 481 1119 543 1143 517 1119 b 418 1179 444 1119 418 1143 z "},"Ã":{"ha":960,"x_min":0,"x_max":0,"o":"m 481 685 l 588 383 l 374 383 z m 8 0 l 236 0 l 307 200 l 654 200 l 725 0 l 951 0 l 583 972 l 376 972 z m 193 1074 l 331 1053 b 382 1125 338 1101 354 1125 b 454 1093 408 1125 422 1114 b 576 1056 490 1069 531 1056 b 765 1251 685 1056 761 1133 l 626 1271 b 576 1199 621 1222 604 1199 b 506 1231 550 1199 538 1211 b 382 1268 464 1257 425 1268 b 193 1074 274 1268 197 1189 z "},"Æ":{"ha":1382,"x_min":0,"x_max":0,"o":"m 249 0 l 354 208 l 654 208 l 654 0 l 1338 0 l 1338 189 l 874 189 l 874 418 l 1229 418 l 1229 607 l 874 607 l 874 785 l 1322 785 l 1322 972 l 511 972 l 7 0 z m 449 397 l 654 804 l 654 397 z "},"Ǽ":{"ha":1382,"x_min":0,"x_max":0,"o":"m 249 0 l 354 208 l 654 208 l 654 0 l 1338 0 l 1338 189 l 874 189 l 874 418 l 1229 418 l 1229 607 l 874 607 l 874 785 l 1322 785 l 1322 972 l 511 972 l 7 0 z m 449 397 l 654 804 l 654 397 z m 635 1050 l 778 1050 l 947 1256 l 715 1256 z "},"B":{"ha":886,"x_min":0,"x_max":0,"o":"m 88 0 l 493 0 b 843 290 699 0 843 106 b 681 531 843 417 768 496 b 793 722 736 561 793 631 b 483 972 793 885 658 972 l 88 972 z m 307 189 l 307 421 l 475 421 b 636 303 588 421 636 379 b 475 189 636 228 588 189 z m 307 604 l 307 800 l 461 800 b 592 701 553 800 592 763 b 465 604 592 642 553 604 z "},"C":{"ha":1025,"x_min":0,"x_max":0,"o":"m 535 -11 b 972 297 764 -11 926 104 l 751 347 b 533 178 729 243 647 178 b 267 486 385 178 267 283 b 533 796 267 689 386 796 b 757 606 646 796 735 722 l 975 651 b 535 983 947 853 778 983 b 46 486 275 983 46 814 b 535 -11 46 158 271 -11 z "},"Ć":{"ha":1025,"x_min":0,"x_max":0,"o":"m 535 -11 b 972 297 764 -11 926 104 l 751 347 b 533 178 729 243 647 178 b 267 486 385 178 267 283 b 533 796 267 689 386 796 b 757 606 646 796 735 722 l 975 651 b 535 983 947 853 778 983 b 46 486 275 983 46 814 b 535 -11 46 158 271 -11 z m 429 1050 l 572 1050 l 742 1256 l 510 1256 z "},"Č":{"ha":1025,"x_min":0,"x_max":0,"o":"m 535 -11 b 972 297 764 -11 926 104 l 751 347 b 533 178 729 243 647 178 b 267 486 385 178 267 283 b 533 796 267 689 386 796 b 757 606 646 796 735 722 l 975 651 b 535 983 947 853 778 983 b 46 486 275 983 46 814 b 535 -11 46 158 271 -11 z m 281 1256 l 436 1050 l 613 1050 l 769 1256 l 625 1256 l 525 1157 l 425 1256 z "},"Ç":{"ha":1025,"x_min":0,"x_max":0,"o":"m 46 486 b 456 -6 46 192 226 25 l 290 -206 l 522 -206 l 603 -7 b 972 297 796 13 931 124 l 751 347 b 533 178 729 243 647 178 b 267 486 385 178 267 283 b 533 796 267 689 386 796 b 757 606 646 796 735 722 l 975 651 b 535 983 947 853 778 983 b 46 486 275 983 46 814 z "},"Ĉ":{"ha":1025,"x_min":0,"x_max":0,"o":"m 535 -11 b 972 297 764 -11 926 104 l 751 347 b 533 178 729 243 647 178 b 267 486 385 178 267 283 b 533 796 267 689 386 796 b 757 606 646 796 735 722 l 975 651 b 535 983 947 853 778 983 b 46 486 275 983 46 814 b 535 -11 46 158 271 -11 z m 279 1050 l 424 1050 l 524 1149 l 624 1050 l 768 1050 l 611 1256 l 435 1256 z "},"Ċ":{"ha":1025,"x_min":0,"x_max":0,"o":"m 535 -11 b 972 297 764 -11 926 104 l 751 347 b 533 178 729 243 647 178 b 267 486 385 178 267 283 b 533 796 267 689 386 796 b 757 606 646 796 735 722 l 975 651 b 535 983 947 853 778 983 b 46 486 275 983 46 814 b 535 -11 46 158 271 -11 z m 419 1060 l 635 1060 l 635 1256 l 419 1256 z "},"D":{"ha":968,"x_min":0,"x_max":0,"o":"m 88 0 l 419 0 b 924 486 686 0 924 153 b 419 972 924 819 686 972 l 88 972 z m 303 189 l 303 785 l 396 785 b 703 486 553 785 703 711 b 396 189 703 261 553 189 z "},"Ð":{"ha":968,"x_min":0,"x_max":0,"o":"m 88 0 l 419 0 b 924 486 686 0 924 153 b 419 972 924 819 686 972 l 88 972 l 88 554 l -1 554 l -1 418 l 88 418 z m 303 189 l 303 418 l 457 418 l 457 554 l 303 554 l 303 785 l 396 785 b 703 486 553 785 703 711 b 396 189 703 261 553 189 z "},"Ď":{"ha":968,"x_min":0,"x_max":0,"o":"m 88 0 l 419 0 b 924 486 686 0 924 153 b 419 972 924 819 686 972 l 88 972 z m 188 1256 l 343 1050 l 519 1050 l 676 1256 l 532 1256 l 432 1157 l 332 1256 z m 303 189 l 303 785 l 396 785 b 703 486 553 785 703 711 b 396 189 703 261 553 189 z "},"Đ":{"ha":968,"x_min":0,"x_max":0,"o":"m 88 0 l 419 0 b 924 486 686 0 924 153 b 419 972 924 819 686 972 l 88 972 l 88 554 l -1 554 l -1 418 l 88 418 z m 303 189 l 303 418 l 457 418 l 457 554 l 303 554 l 303 785 l 396 785 b 703 486 553 785 703 711 b 396 189 703 261 553 189 z "},"E":{"ha":815,"x_min":0,"x_max":0,"o":"m 88 0 l 771 0 l 771 189 l 307 189 l 307 418 l 663 418 l 663 607 l 307 607 l 307 785 l 756 785 l 756 972 l 88 972 z "},"É":{"ha":815,"x_min":0,"x_max":0,"o":"m 88 0 l 771 0 l 771 189 l 307 189 l 307 418 l 663 418 l 663 607 l 307 607 l 307 785 l 756 785 l 756 972 l 88 972 z m 333 1050 l 476 1050 l 646 1256 l 414 1256 z "},"Ĕ":{"ha":815,"x_min":0,"x_max":0,"o":"m 88 0 l 771 0 l 771 189 l 307 189 l 307 418 l 663 418 l 663 607 l 307 607 l 307 785 l 756 785 l 756 972 l 88 972 z m 231 1239 b 429 1046 231 1128 315 1046 b 631 1239 546 1046 631 1128 l 485 1239 b 429 1174 485 1199 464 1174 b 376 1239 396 1174 376 1199 z "},"Ě":{"ha":815,"x_min":0,"x_max":0,"o":"m 88 0 l 771 0 l 771 189 l 307 189 l 307 418 l 663 418 l 663 607 l 307 607 l 307 785 l 756 785 l 756 972 l 88 972 z m 185 1256 l 340 1050 l 517 1050 l 674 1256 l 529 1256 l 429 1157 l 329 1256 z "},"Ê":{"ha":815,"x_min":0,"x_max":0,"o":"m 88 0 l 771 0 l 771 189 l 307 189 l 307 418 l 663 418 l 663 607 l 307 607 l 307 785 l 756 785 l 756 972 l 88 972 z m 183 1050 l 328 1050 l 428 1149 l 528 1050 l 672 1050 l 515 1256 l 339 1256 z "},"Ë":{"ha":815,"x_min":0,"x_max":0,"o":"m 88 0 l 771 0 l 771 189 l 307 189 l 307 418 l 663 418 l 663 607 l 307 607 l 307 785 l 756 785 l 756 972 l 88 972 z m 188 1064 l 374 1064 l 374 1256 l 188 1256 z m 483 1064 l 671 1064 l 671 1256 l 483 1256 z "},"Ė":{"ha":815,"x_min":0,"x_max":0,"o":"m 88 0 l 771 0 l 771 189 l 307 189 l 307 418 l 663 418 l 663 607 l 307 607 l 307 785 l 756 785 l 756 972 l 88 972 z m 324 1060 l 539 1060 l 539 1256 l 324 1256 z "},"È":{"ha":815,"x_min":0,"x_max":0,"o":"m 88 0 l 771 0 l 771 189 l 307 189 l 307 418 l 663 418 l 663 607 l 307 607 l 307 785 l 756 785 l 756 972 l 88 972 z m 193 1256 l 363 1050 l 506 1050 l 425 1256 z "},"Ē":{"ha":815,"x_min":0,"x_max":0,"o":"m 88 0 l 771 0 l 771 189 l 307 189 l 307 418 l 663 418 l 663 607 l 307 607 l 307 785 l 756 785 l 756 972 l 88 972 z m 232 1079 l 625 1079 l 625 1232 l 232 1232 z "},"Ę":{"ha":815,"x_min":0,"x_max":0,"o":"m 88 0 l 622 0 b 574 -121 593 -35 574 -82 b 746 -264 574 -207 643 -264 b 828 -254 781 -264 817 -258 l 810 -121 b 778 -125 806 -122 793 -125 b 729 -81 749 -125 729 -110 b 771 0 729 -50 754 -18 l 771 189 l 307 189 l 307 418 l 663 418 l 663 607 l 307 607 l 307 785 l 756 785 l 756 972 l 88 972 z "},"F":{"ha":797,"x_min":0,"x_max":0,"o":"m 88 0 l 307 0 l 307 407 l 674 407 l 674 596 l 307 596 l 307 785 l 763 785 l 763 972 l 88 972 z "},"G":{"ha":1051,"x_min":0,"x_max":0,"o":"m 525 -11 b 772 101 633 -11 732 33 l 772 0 l 972 0 l 972 529 l 506 529 l 506 354 l 769 354 b 536 178 757 250 665 178 b 265 486 378 178 265 290 b 539 796 265 682 378 796 b 772 607 660 796 750 721 l 989 651 b 542 983 953 858 785 983 b 46 486 283 983 46 818 b 525 -11 46 154 276 -11 z "},"Ğ":{"ha":1051,"x_min":0,"x_max":0,"o":"m 525 -11 b 772 101 633 -11 732 33 l 772 0 l 972 0 l 972 529 l 506 529 l 506 354 l 769 354 b 536 178 757 250 665 178 b 265 486 378 178 265 290 b 539 796 265 682 378 796 b 772 607 660 796 750 721 l 989 651 b 542 983 953 858 785 983 b 46 486 283 983 46 818 b 525 -11 46 154 276 -11 z m 328 1239 b 526 1046 328 1128 413 1046 b 728 1239 643 1046 728 1128 l 582 1239 b 526 1174 582 1199 561 1174 b 474 1239 493 1174 474 1199 z "},"Ĝ":{"ha":1051,"x_min":0,"x_max":0,"o":"m 525 -11 b 772 101 633 -11 732 33 l 772 0 l 972 0 l 972 529 l 506 529 l 506 354 l 769 354 b 536 178 757 250 665 178 b 265 486 378 178 265 290 b 539 796 265 682 378 796 b 772 607 660 796 750 721 l 989 651 b 542 983 953 858 785 983 b 46 486 283 983 46 818 b 525 -11 46 154 276 -11 z m 281 1050 l 425 1050 l 525 1149 l 625 1050 l 769 1050 l 613 1256 l 436 1256 z "},"Ģ":{"ha":1051,"x_min":0,"x_max":0,"o":"m 525 -11 b 772 101 633 -11 732 33 l 772 0 l 972 0 l 972 529 l 506 529 l 506 354 l 769 354 b 536 178 757 250 665 178 b 265 486 378 178 265 290 b 539 796 265 682 378 796 b 772 607 660 796 750 721 l 989 651 b 542 983 953 858 785 983 b 46 486 283 983 46 818 b 525 -11 46 154 276 -11 z m 368 -264 l 511 -264 l 636 -58 l 418 -58 z "},"Ġ":{"ha":1051,"x_min":0,"x_max":0,"o":"m 525 -11 b 772 101 633 -11 732 33 l 772 0 l 972 0 l 972 529 l 506 529 l 506 354 l 769 354 b 536 178 757 250 665 178 b 265 486 378 178 265 290 b 539 796 265 682 378 796 b 772 607 660 796 750 721 l 989 651 b 542 983 953 858 785 983 b 46 486 283 983 46 818 b 525 -11 46 154 276 -11 z m 421 1060 l 636 1060 l 636 1256 l 421 1256 z "},"H":{"ha":1001,"x_min":0,"x_max":0,"o":"m 693 972 l 693 594 l 307 594 l 307 972 l 88 972 l 88 0 l 307 0 l 307 407 l 693 407 l 693 0 l 914 0 l 914 972 z "},"Ħ":{"ha":1001,"x_min":0,"x_max":0,"o":"m 693 972 l 693 865 l 307 865 l 307 972 l 88 972 l 88 865 l 3 865 l 3 706 l 88 706 l 88 0 l 307 0 l 307 407 l 693 407 l 693 0 l 914 0 l 914 706 l 996 706 l 996 865 l 914 865 l 914 972 z m 307 594 l 307 706 l 693 706 l 693 594 z "},"Ĥ":{"ha":1001,"x_min":0,"x_max":0,"o":"m 693 972 l 693 594 l 307 594 l 307 972 l 88 972 l 88 0 l 307 0 l 307 407 l 693 407 l 693 0 l 914 0 l 914 972 z m 254 1050 l 399 1050 l 499 1149 l 599 1050 l 743 1050 l 586 1256 l 410 1256 z "},"I":{"ha":394,"x_min":0,"x_max":0,"o":"m 88 0 l 307 0 l 307 972 l 88 972 z "},"Ĳ":{"ha":913,"x_min":0,"x_max":0,"o":"m 88 0 l 307 0 l 307 972 l 88 972 z m 429 4 b 542 -7 453 -1 513 -7 b 824 303 711 -7 824 93 l 824 972 l 615 972 l 615 311 b 490 185 615 222 571 185 b 429 192 471 185 450 188 z "},"Í":{"ha":394,"x_min":0,"x_max":0,"o":"m 88 0 l 307 0 l 307 972 l 88 972 z m 100 1050 l 243 1050 l 413 1256 l 181 1256 z "},"Ĭ":{"ha":394,"x_min":0,"x_max":0,"o":"m 88 0 l 307 0 l 307 972 l 88 972 z m -3 1239 b 196 1046 -3 1128 82 1046 b 397 1239 313 1046 397 1128 l 251 1239 b 196 1174 251 1199 231 1174 b 143 1239 163 1174 143 1199 z "},"Î":{"ha":394,"x_min":0,"x_max":0,"o":"m 88 0 l 307 0 l 307 972 l 88 972 z m -49 1050 l 96 1050 l 196 1149 l 296 1050 l 440 1050 l 283 1256 l 107 1256 z "},"Ï":{"ha":394,"x_min":0,"x_max":0,"o":"m 88 0 l 307 0 l 307 972 l 88 972 z m -44 1064 l 142 1064 l 142 1256 l -44 1256 z m 251 1064 l 439 1064 l 439 1256 l 251 1256 z "},"İ":{"ha":394,"x_min":0,"x_max":0,"o":"m 88 0 l 307 0 l 307 972 l 88 972 z m 90 1060 l 306 1060 l 306 1256 l 90 1256 z "},"Ì":{"ha":394,"x_min":0,"x_max":0,"o":"m 88 0 l 307 0 l 307 972 l 88 972 z m -40 1256 l 129 1050 l 272 1050 l 192 1256 z "},"Ī":{"ha":394,"x_min":0,"x_max":0,"o":"m 88 0 l 307 0 l 307 972 l 88 972 z m -1 1079 l 392 1079 l 392 1232 l -1 1232 z "},"Į":{"ha":394,"x_min":0,"x_max":0,"o":"m 88 0 l 158 0 b 110 -121 129 -35 110 -82 b 282 -264 110 -207 179 -264 b 364 -254 317 -264 353 -258 l 346 -121 b 314 -125 342 -122 329 -125 b 265 -81 285 -125 265 -110 b 307 0 265 -50 290 -18 l 307 972 l 88 972 z "},"Ĩ":{"ha":394,"x_min":0,"x_max":0,"o":"m 88 0 l 307 0 l 307 972 l 88 972 z m -90 1074 l 47 1053 b 99 1125 54 1101 71 1125 b 171 1093 125 1125 139 1114 b 293 1056 207 1069 247 1056 b 482 1251 401 1056 478 1133 l 343 1271 b 293 1199 338 1222 321 1199 b 222 1231 267 1199 254 1211 b 99 1268 181 1257 142 1268 b -90 1074 -10 1268 -86 1189 z "},"J":{"ha":518,"x_min":0,"x_max":0,"o":"m 35 192 l 35 4 b 147 -7 58 -1 118 -7 b 429 303 317 -7 429 93 l 429 972 l 221 972 l 221 311 b 96 185 221 222 176 185 b 35 192 76 185 56 188 z "},"Ĵ":{"ha":518,"x_min":0,"x_max":0,"o":"m 35 192 l 35 4 b 147 -7 58 -1 118 -7 b 429 303 317 -7 429 93 l 429 972 l 221 972 l 221 311 b 96 185 221 222 176 185 b 35 192 76 185 56 188 z m 78 1050 l 222 1050 l 322 1149 l 422 1050 l 567 1050 l 410 1256 l 233 1256 z "},"K":{"ha":964,"x_min":0,"x_max":0,"o":"m 307 0 l 307 324 l 401 424 l 682 0 l 958 0 l 554 582 l 926 972 l 639 972 l 307 617 l 307 972 l 88 972 l 88 0 z "},"Ķ":{"ha":964,"x_min":0,"x_max":0,"o":"m 307 0 l 307 324 l 401 424 l 682 0 l 958 0 l 554 582 l 926 972 l 639 972 l 307 617 l 307 972 l 88 972 l 88 0 z m 311 -264 l 454 -264 l 579 -58 l 361 -58 z "},"L":{"ha":758,"x_min":0,"x_max":0,"o":"m 88 0 l 743 0 l 743 189 l 307 189 l 307 972 l 88 972 z "},"Ĺ":{"ha":758,"x_min":0,"x_max":0,"o":"m 88 0 l 743 0 l 743 189 l 307 189 l 307 972 l 88 972 z m 100 1050 l 243 1050 l 413 1256 l 181 1256 z "},"Ľ":{"ha":758,"x_min":0,"x_max":0,"o":"m 88 0 l 743 0 l 743 189 l 307 189 l 307 972 l 88 972 z m 378 778 l 493 778 l 611 1044 l 421 1044 z "},"Ļ":{"ha":758,"x_min":0,"x_max":0,"o":"m 88 0 l 743 0 l 743 189 l 307 189 l 307 972 l 88 972 z m 232 -264 l 375 -264 l 500 -58 l 282 -58 z "},"Ŀ":{"ha":758,"x_min":0,"x_max":0,"o":"m 88 0 l 743 0 l 743 189 l 307 189 l 307 972 l 88 972 z m 440 411 l 650 411 l 650 614 l 440 614 z "},"Ł":{"ha":758,"x_min":0,"x_max":0,"o":"m 506 535 l 506 703 l 307 610 l 307 972 l 88 972 l 88 508 l -28 454 l -28 286 l 88 340 l 88 0 l 743 0 l 743 189 l 307 189 l 307 442 z "},"M":{"ha":1222,"x_min":0,"x_max":0,"o":"m 88 0 l 292 0 l 292 565 l 532 0 l 692 0 l 931 565 l 931 0 l 1135 0 l 1135 972 l 893 972 l 611 311 l 329 972 l 88 972 z "},"N":{"ha":975,"x_min":0,"x_max":0,"o":"m 88 0 l 292 0 l 292 625 l 669 0 l 888 0 l 888 972 l 683 972 l 683 347 l 306 972 l 88 972 z "},"Ń":{"ha":975,"x_min":0,"x_max":0,"o":"m 88 0 l 292 0 l 292 625 l 669 0 l 888 0 l 888 972 l 683 972 l 683 347 l 306 972 l 88 972 z m 392 1050 l 535 1050 l 704 1256 l 472 1256 z "},"Ň":{"ha":975,"x_min":0,"x_max":0,"o":"m 88 0 l 292 0 l 292 625 l 669 0 l 888 0 l 888 972 l 683 972 l 683 347 l 306 972 l 88 972 z m 243 1256 l 399 1050 l 575 1050 l 732 1256 l 588 1256 l 488 1157 l 388 1256 z "},"Ņ":{"ha":975,"x_min":0,"x_max":0,"o":"m 88 0 l 292 0 l 292 625 l 669 0 l 888 0 l 888 972 l 683 972 l 683 347 l 306 972 l 88 972 z m 335 -264 l 478 -264 l 603 -58 l 385 -58 z "},"Ñ":{"ha":975,"x_min":0,"x_max":0,"o":"m 88 0 l 292 0 l 292 625 l 669 0 l 888 0 l 888 972 l 683 972 l 683 347 l 306 972 l 88 972 z m 201 1074 l 339 1053 b 390 1125 346 1101 363 1125 b 463 1093 417 1125 431 1114 b 585 1056 499 1069 539 1056 b 774 1251 693 1056 769 1133 l 635 1271 b 585 1199 629 1222 613 1199 b 514 1231 558 1199 546 1211 b 390 1268 472 1257 433 1268 b 201 1074 282 1268 206 1189 z "},"Ŋ":{"ha":975,"x_min":0,"x_max":0,"o":"m 549 -112 l 549 -287 b 888 -17 754 -301 888 -185 l 888 972 l 683 972 l 683 347 l 306 972 l 88 972 l 88 0 l 292 0 l 292 625 l 683 -4 b 549 -112 676 -90 635 -119 z "},"O":{"ha":1088,"x_min":0,"x_max":0,"o":"m 546 -11 b 1043 486 832 -11 1043 200 b 546 983 1043 772 832 983 b 46 486 257 983 46 772 b 546 -11 46 200 257 -11 z m 265 486 b 544 796 265 664 381 796 b 824 486 707 796 824 664 b 544 178 824 308 707 178 b 265 486 381 178 265 308 z "},"Ó":{"ha":1088,"x_min":0,"x_max":0,"o":"m 546 -11 b 1043 486 832 -11 1043 200 b 546 983 1043 772 832 983 b 46 486 257 983 46 772 b 546 -11 46 200 257 -11 z m 265 486 b 544 796 265 664 381 796 b 824 486 707 796 824 664 b 544 178 824 308 707 178 b 265 486 381 178 265 308 z m 449 1050 l 592 1050 l 761 1256 l 529 1256 z "},"Ŏ":{"ha":1088,"x_min":0,"x_max":0,"o":"m 546 -11 b 1043 486 832 -11 1043 200 b 546 983 1043 772 832 983 b 46 486 257 983 46 772 b 546 -11 46 200 257 -11 z m 265 486 b 544 796 265 664 381 796 b 824 486 707 796 824 664 b 544 178 824 308 707 178 b 265 486 381 178 265 308 z m 346 1239 b 544 1046 346 1128 431 1046 b 746 1239 661 1046 746 1128 l 600 1239 b 544 1174 600 1199 579 1174 b 492 1239 511 1174 492 1199 z "},"Ô":{"ha":1088,"x_min":0,"x_max":0,"o":"m 546 -11 b 1043 486 832 -11 1043 200 b 546 983 1043 772 832 983 b 46 486 257 983 46 772 b 546 -11 46 200 257 -11 z m 265 486 b 544 796 265 664 381 796 b 824 486 707 796 824 664 b 544 178 824 308 707 178 b 265 486 381 178 265 308 z m 300 1050 l 444 1050 l 544 1149 l 644 1050 l 789 1050 l 632 1256 l 456 1256 z "},"Ö":{"ha":1088,"x_min":0,"x_max":0,"o":"m 546 -11 b 1043 486 832 -11 1043 200 b 546 983 1043 772 832 983 b 46 486 257 983 46 772 b 546 -11 46 200 257 -11 z m 265 486 b 544 796 265 664 381 796 b 824 486 707 796 824 664 b 544 178 824 308 707 178 b 265 486 381 178 265 308 z m 304 1064 l 490 1064 l 490 1256 l 304 1256 z m 600 1064 l 788 1064 l 788 1256 l 600 1256 z "},"Ò":{"ha":1088,"x_min":0,"x_max":0,"o":"m 546 -11 b 1043 486 832 -11 1043 200 b 546 983 1043 772 832 983 b 46 486 257 983 46 772 b 546 -11 46 200 257 -11 z m 265 486 b 544 796 265 664 381 796 b 824 486 707 796 824 664 b 544 178 824 308 707 178 b 265 486 381 178 265 308 z m 308 1256 l 478 1050 l 621 1050 l 540 1256 z "},"Ő":{"ha":1088,"x_min":0,"x_max":0,"o":"m 546 -11 b 1043 486 832 -11 1043 200 b 546 983 1043 772 832 983 b 46 486 257 983 46 772 b 546 -11 46 200 257 -11 z m 265 486 b 544 796 265 664 381 796 b 824 486 707 796 824 664 b 544 178 824 308 707 178 b 265 486 381 178 265 308 z m 326 1050 l 483 1050 l 576 1256 l 407 1256 z m 574 1050 l 729 1050 l 835 1256 l 654 1256 z "},"Ō":{"ha":1088,"x_min":0,"x_max":0,"o":"m 546 -11 b 1043 486 832 -11 1043 200 b 546 983 1043 772 832 983 b 46 486 257 983 46 772 b 546 -11 46 200 257 -11 z m 265 486 b 544 796 265 664 381 796 b 824 486 707 796 824 664 b 544 178 824 308 707 178 b 265 486 381 178 265 308 z m 347 1079 l 740 1079 l 740 1232 l 347 1232 z "},"Ø":{"ha":1088,"x_min":0,"x_max":0,"o":"m 546 -11 b 1043 486 832 -11 1043 200 b 938 801 1043 608 1004 717 l 1024 903 l 882 1029 l 792 924 b 546 983 721 963 638 983 b 46 486 257 983 46 772 b 153 169 46 363 85 254 l 68 69 l 208 -57 l 299 49 b 546 -11 369 10 454 -11 z m 265 486 b 544 796 265 664 381 796 b 663 769 588 796 626 786 l 296 338 b 265 486 276 382 265 432 z m 429 203 l 793 632 b 824 486 813 589 824 540 b 544 178 824 308 707 178 b 429 203 503 178 464 186 z "},"Õ":{"ha":1088,"x_min":0,"x_max":0,"o":"m 546 -11 b 1043 486 832 -11 1043 200 b 546 983 1043 772 832 983 b 46 486 257 983 46 772 b 546 -11 46 200 257 -11 z m 258 1074 l 396 1053 b 447 1125 403 1101 419 1125 b 519 1093 474 1125 488 1114 b 642 1056 556 1069 596 1056 b 831 1251 750 1056 826 1133 l 692 1271 b 642 1199 686 1222 669 1199 b 571 1231 615 1199 603 1211 b 447 1268 529 1257 490 1268 b 258 1074 339 1268 263 1189 z m 265 486 b 544 796 265 664 381 796 b 824 486 707 796 824 664 b 544 178 824 308 707 178 b 265 486 381 178 265 308 z "},"Œ":{"ha":1554,"x_min":0,"x_max":0,"o":"m 546 -11 b 826 69 651 -11 747 18 l 826 0 l 1510 0 l 1510 189 l 1046 189 l 1046 418 l 1401 418 l 1401 607 l 1046 607 l 1046 785 l 1494 785 l 1494 972 l 826 972 l 826 903 b 546 983 747 954 651 983 b 46 486 257 983 46 772 b 546 -11 46 200 257 -11 z m 265 486 b 544 796 265 664 381 796 b 824 486 707 796 824 664 b 544 178 824 308 707 178 b 265 486 381 178 265 308 z "},"P":{"ha":846,"x_min":0,"x_max":0,"o":"m 89 0 l 308 0 l 308 364 l 492 364 b 822 668 693 364 822 483 b 492 972 822 853 693 972 l 89 972 z m 308 551 l 308 785 l 469 785 b 603 668 553 785 603 740 b 469 551 603 596 553 551 z "},"Þ":{"ha":846,"x_min":0,"x_max":0,"o":"m 89 0 l 308 0 l 308 190 l 492 190 b 822 486 701 190 822 307 b 492 782 822 665 701 782 l 308 782 l 308 972 l 89 972 z m 308 372 l 308 600 l 479 600 b 611 486 571 600 611 554 b 479 372 611 418 571 372 z "},"Q":{"ha":1090,"x_min":0,"x_max":0,"o":"m 479 358 l 633 192 b 544 178 606 183 576 178 b 265 486 381 178 265 308 b 544 796 265 664 381 796 b 824 486 707 796 824 664 b 776 308 824 418 807 357 l 617 482 z m 46 486 b 546 -11 46 200 257 -11 b 775 40 629 -11 707 7 l 900 -94 l 1035 26 l 921 150 b 1043 486 997 238 1043 354 b 546 983 1043 772 832 983 b 46 486 257 983 46 772 z "},"R":{"ha":915,"x_min":0,"x_max":0,"o":"m 90 0 l 310 0 l 310 381 l 432 381 l 643 0 l 900 0 l 651 426 b 792 676 740 478 792 571 b 475 972 792 856 667 972 l 88 972 z m 310 568 l 310 785 l 438 785 b 572 676 524 785 572 744 b 438 568 572 608 524 568 z "},"Ŕ":{"ha":915,"x_min":0,"x_max":0,"o":"m 90 0 l 310 0 l 310 381 l 432 381 l 643 0 l 900 0 l 651 426 b 792 676 740 478 792 571 b 475 972 792 856 667 972 l 88 972 z m 310 568 l 310 785 l 438 785 b 572 676 524 785 572 744 b 438 568 572 608 524 568 z m 313 1050 l 456 1050 l 625 1256 l 393 1256 z "},"Ř":{"ha":915,"x_min":0,"x_max":0,"o":"m 90 0 l 310 0 l 310 381 l 432 381 l 643 0 l 900 0 l 651 426 b 792 676 740 478 792 571 b 475 972 792 856 667 972 l 88 972 z m 164 1256 l 319 1050 l 496 1050 l 653 1256 l 508 1256 l 408 1157 l 308 1256 z m 310 568 l 310 785 l 438 785 b 572 676 524 785 572 744 b 438 568 572 608 524 568 z "},"Ŗ":{"ha":915,"x_min":0,"x_max":0,"o":"m 90 0 l 310 0 l 310 381 l 432 381 l 643 0 l 900 0 l 651 426 b 792 676 740 478 792 571 b 475 972 792 856 667 972 l 88 972 z m 288 -264 l 431 -264 l 556 -58 l 338 -58 z m 310 568 l 310 785 l 438 785 b 572 676 524 785 572 744 b 438 568 572 608 524 568 z "},"S":{"ha":825,"x_min":0,"x_max":0,"o":"m 411 -11 b 785 283 635 -11 785 107 b 285 711 785 681 285 557 b 408 797 285 765 332 797 b 585 653 500 797 565 740 l 781 735 b 408 983 747 883 596 983 b 65 710 218 983 65 869 b 564 278 65 353 564 461 b 419 175 564 217 507 175 b 226 356 324 175 239 247 l 35 299 b 411 -11 53 121 217 -11 z "},"Ś":{"ha":825,"x_min":0,"x_max":0,"o":"m 411 -11 b 785 283 635 -11 785 107 b 285 711 785 681 285 557 b 408 797 285 765 332 797 b 585 653 500 797 565 740 l 781 735 b 408 983 747 883 596 983 b 65 710 218 983 65 869 b 564 278 65 353 564 461 b 419 175 564 217 507 175 b 226 356 324 175 239 247 l 35 299 b 411 -11 53 121 217 -11 z m 311 1050 l 454 1050 l 624 1256 l 392 1256 z "},"Š":{"ha":825,"x_min":0,"x_max":0,"o":"m 411 -11 b 785 283 635 -11 785 107 b 285 711 785 681 285 557 b 408 797 285 765 332 797 b 585 653 500 797 565 740 l 781 735 b 408 983 747 883 596 983 b 65 710 218 983 65 869 b 564 278 65 353 564 461 b 419 175 564 217 507 175 b 226 356 324 175 239 247 l 35 299 b 411 -11 53 121 217 -11 z m 163 1256 l 318 1050 l 494 1050 l 651 1256 l 507 1256 l 407 1157 l 307 1256 z "},"Ş":{"ha":825,"x_min":0,"x_max":0,"o":"m 35 299 b 356 -7 51 139 186 15 l 192 -206 l 424 -206 l 506 -4 b 785 283 676 25 785 133 b 285 711 785 681 285 557 b 408 797 285 765 332 797 b 585 653 500 797 565 740 l 781 735 b 408 983 747 883 596 983 b 65 710 218 983 65 869 b 564 278 65 353 564 461 b 419 175 564 217 507 175 b 226 356 324 175 239 247 z "},"Ŝ":{"ha":825,"x_min":0,"x_max":0,"o":"m 411 -11 b 785 283 635 -11 785 107 b 285 711 785 681 285 557 b 408 797 285 765 332 797 b 585 653 500 797 565 740 l 781 735 b 408 983 747 883 596 983 b 65 710 218 983 65 869 b 564 278 65 353 564 461 b 419 175 564 217 507 175 b 226 356 324 175 239 247 l 35 299 b 411 -11 53 121 217 -11 z m 161 1050 l 306 1050 l 406 1149 l 506 1050 l 650 1050 l 493 1256 l 317 1256 z "},"Ș":{"ha":825,"x_min":0,"x_max":0,"o":"m 411 -11 b 785 283 635 -11 785 107 b 285 711 785 681 285 557 b 408 797 285 765 332 797 b 585 653 500 797 565 740 l 781 735 b 408 983 747 883 596 983 b 65 710 218 983 65 869 b 564 278 65 353 564 461 b 419 175 564 217 507 175 b 226 356 324 175 239 247 l 35 299 b 411 -11 53 121 217 -11 z m 243 -264 l 386 -264 l 511 -58 l 293 -58 z "},"ẞ":{"ha":904,"x_min":0,"x_max":0,"o":"m 461 983 b 88 594 249 983 88 831 l 88 0 l 307 0 l 307 594 b 461 797 307 713 372 797 b 592 726 522 797 575 769 l 404 533 l 419 418 l 521 418 b 656 306 604 418 656 375 b 528 189 656 236 606 189 l 390 189 l 390 0 l 543 0 b 860 303 731 0 860 125 b 654 554 860 421 767 519 l 807 708 b 461 983 794 865 654 983 z "},"T":{"ha":829,"x_min":0,"x_max":0,"o":"m 306 0 l 525 0 l 525 785 l 810 785 l 810 972 l 19 972 l 19 785 l 306 785 z "},"Ŧ":{"ha":810,"x_min":0,"x_max":0,"o":"m 67 442 l 306 442 l 306 0 l 525 0 l 525 442 l 746 442 l 746 607 l 525 607 l 525 785 l 810 785 l 810 972 l 19 972 l 19 785 l 306 785 l 306 607 l 67 607 z "},"Ť":{"ha":829,"x_min":0,"x_max":0,"o":"m 306 0 l 525 0 l 525 785 l 810 785 l 810 972 l 19 972 l 19 785 l 306 785 z m 171 1256 l 326 1050 l 503 1050 l 660 1256 l 515 1256 l 415 1157 l 315 1256 z "},"Ţ":{"ha":829,"x_min":0,"x_max":0,"o":"m 306 0 l 381 0 l 211 -206 l 443 -206 l 526 0 l 525 0 l 525 785 l 810 785 l 810 972 l 19 972 l 19 785 l 306 785 z "},"Ț":{"ha":829,"x_min":0,"x_max":0,"o":"m 306 0 l 525 0 l 525 785 l 810 785 l 810 972 l 19 972 l 19 785 l 306 785 z m 263 -264 l 406 -264 l 531 -58 l 313 -58 z "},"U":{"ha":956,"x_min":0,"x_max":0,"o":"m 478 -11 b 868 361 708 -11 868 113 l 868 972 l 664 972 l 664 363 b 478 179 664 236 586 179 b 292 363 369 179 292 236 l 292 972 l 88 972 l 88 361 b 478 -11 88 113 247 -11 z "},"Ú":{"ha":956,"x_min":0,"x_max":0,"o":"m 478 -11 b 868 361 708 -11 868 113 l 868 972 l 664 972 l 664 363 b 478 179 664 236 586 179 b 292 363 369 179 292 236 l 292 972 l 88 972 l 88 361 b 478 -11 88 113 247 -11 z m 382 1050 l 525 1050 l 694 1256 l 463 1256 z "},"Ŭ":{"ha":956,"x_min":0,"x_max":0,"o":"m 478 -11 b 868 361 708 -11 868 113 l 868 972 l 664 972 l 664 363 b 478 179 664 236 586 179 b 292 363 369 179 292 236 l 292 972 l 88 972 l 88 361 b 478 -11 88 113 247 -11 z m 279 1239 b 478 1046 279 1128 364 1046 b 679 1239 594 1046 679 1128 l 533 1239 b 478 1174 533 1199 513 1174 b 425 1239 444 1174 425 1199 z "},"Û":{"ha":956,"x_min":0,"x_max":0,"o":"m 478 -11 b 868 361 708 -11 868 113 l 868 972 l 664 972 l 664 363 b 478 179 664 236 586 179 b 292 363 369 179 292 236 l 292 972 l 88 972 l 88 361 b 478 -11 88 113 247 -11 z m 232 1050 l 376 1050 l 476 1149 l 576 1050 l 721 1050 l 564 1256 l 388 1256 z "},"Ü":{"ha":956,"x_min":0,"x_max":0,"o":"m 478 -11 b 868 361 708 -11 868 113 l 868 972 l 664 972 l 664 363 b 478 179 664 236 586 179 b 292 363 369 179 292 236 l 292 972 l 88 972 l 88 361 b 478 -11 88 113 247 -11 z m 236 1064 l 422 1064 l 422 1256 l 236 1256 z m 532 1064 l 719 1064 l 719 1256 l 532 1256 z "},"Ù":{"ha":956,"x_min":0,"x_max":0,"o":"m 478 -11 b 868 361 708 -11 868 113 l 868 972 l 664 972 l 664 363 b 478 179 664 236 586 179 b 292 363 369 179 292 236 l 292 972 l 88 972 l 88 361 b 478 -11 88 113 247 -11 z m 242 1256 l 411 1050 l 554 1050 l 474 1256 z "},"Ű":{"ha":956,"x_min":0,"x_max":0,"o":"m 478 -11 b 868 361 708 -11 868 113 l 868 972 l 664 972 l 664 363 b 478 179 664 236 586 179 b 292 363 369 179 292 236 l 292 972 l 88 972 l 88 361 b 478 -11 88 113 247 -11 z m 258 1050 l 415 1050 l 508 1256 l 339 1256 z m 506 1050 l 661 1050 l 767 1256 l 586 1256 z "},"Ū":{"ha":956,"x_min":0,"x_max":0,"o":"m 478 -11 b 868 361 708 -11 868 113 l 868 972 l 664 972 l 664 363 b 478 179 664 236 586 179 b 292 363 369 179 292 236 l 292 972 l 88 972 l 88 361 b 478 -11 88 113 247 -11 z m 281 1079 l 674 1079 l 674 1232 l 281 1232 z "},"Ų":{"ha":956,"x_min":0,"x_max":0,"o":"m 500 -264 b 582 -254 535 -264 571 -258 l 564 -121 b 532 -125 560 -122 547 -125 b 483 -81 503 -125 483 -110 b 517 -10 483 -56 501 -29 b 868 361 726 3 868 126 l 868 972 l 664 972 l 664 363 b 478 179 664 236 586 179 b 292 363 369 179 292 236 l 292 972 l 88 972 l 88 361 b 375 -1 88 151 201 31 b 328 -121 346 -36 328 -83 b 500 -264 328 -207 397 -264 z "},"Ů":{"ha":956,"x_min":0,"x_max":0,"o":"m 478 -11 b 868 361 708 -11 868 113 l 868 972 l 664 972 l 664 363 b 478 179 664 236 586 179 b 292 363 369 179 292 236 l 292 972 l 88 972 l 88 361 b 478 -11 88 113 247 -11 z m 311 1179 b 478 1021 311 1089 382 1021 b 644 1179 575 1021 644 1089 b 478 1336 644 1269 575 1336 b 311 1179 382 1336 311 1269 z m 415 1179 b 478 1239 415 1214 442 1239 b 540 1179 514 1239 540 1214 b 478 1119 540 1143 514 1119 b 415 1179 442 1119 415 1143 z "},"Ũ":{"ha":956,"x_min":0,"x_max":0,"o":"m 478 -11 b 868 361 708 -11 868 113 l 868 972 l 664 972 l 664 363 b 478 179 664 236 586 179 b 292 363 369 179 292 236 l 292 972 l 88 972 l 88 361 b 478 -11 88 113 247 -11 z m 192 1074 l 329 1053 b 381 1125 336 1101 353 1125 b 453 1093 407 1125 421 1114 b 575 1056 489 1069 529 1056 b 764 1251 683 1056 760 1133 l 625 1271 b 575 1199 619 1222 603 1199 b 504 1231 549 1199 536 1211 b 381 1268 463 1257 424 1268 b 192 1074 272 1268 196 1189 z "},"V":{"ha":922,"x_min":0,"x_max":0,"o":"m 357 0 l 567 0 l 915 972 l 692 972 l 461 264 l 232 972 l 8 972 z "},"W":{"ha":1415,"x_min":0,"x_max":0,"o":"m 296 0 l 525 0 l 708 676 l 889 0 l 1122 0 l 1396 972 l 1169 972 l 1004 265 l 833 972 l 579 972 l 410 264 l 244 972 l 19 972 z "},"Ẃ":{"ha":1415,"x_min":0,"x_max":0,"o":"m 296 0 l 525 0 l 708 676 l 889 0 l 1122 0 l 1396 972 l 1169 972 l 1004 265 l 833 972 l 579 972 l 410 264 l 244 972 l 19 972 z m 611 1050 l 754 1050 l 924 1256 l 692 1256 z "},"Ŵ":{"ha":1415,"x_min":0,"x_max":0,"o":"m 296 0 l 525 0 l 708 676 l 889 0 l 1122 0 l 1396 972 l 1169 972 l 1004 265 l 833 972 l 579 972 l 410 264 l 244 972 l 19 972 z m 463 1050 l 607 1050 l 707 1149 l 807 1050 l 951 1050 l 794 1256 l 618 1256 z "},"Ẅ":{"ha":1415,"x_min":0,"x_max":0,"o":"m 296 0 l 525 0 l 708 676 l 889 0 l 1122 0 l 1396 972 l 1169 972 l 1004 265 l 833 972 l 579 972 l 410 264 l 244 972 l 19 972 z m 467 1064 l 653 1064 l 653 1256 l 467 1256 z m 763 1064 l 950 1064 l 950 1256 l 763 1256 z "},"Ẁ":{"ha":1415,"x_min":0,"x_max":0,"o":"m 296 0 l 525 0 l 708 676 l 889 0 l 1122 0 l 1396 972 l 1169 972 l 1004 265 l 833 972 l 579 972 l 410 264 l 244 972 l 19 972 z m 471 1256 l 640 1050 l 783 1050 l 703 1256 z "},"X":{"ha":879,"x_min":0,"x_max":0,"o":"m 10 0 l 242 0 l 440 328 l 639 0 l 869 0 l 556 519 l 829 972 l 597 972 l 440 711 l 282 972 l 50 972 l 324 519 z "},"Y":{"ha":881,"x_min":0,"x_max":0,"o":"m 331 0 l 550 0 l 550 401 l 879 972 l 647 972 l 440 607 l 235 972 l 1 972 l 331 401 z "},"Ý":{"ha":881,"x_min":0,"x_max":0,"o":"m 331 0 l 550 0 l 550 401 l 879 972 l 647 972 l 440 607 l 235 972 l 1 972 l 331 401 z m 343 1050 l 486 1050 l 656 1256 l 424 1256 z "},"Ŷ":{"ha":881,"x_min":0,"x_max":0,"o":"m 331 0 l 550 0 l 550 401 l 879 972 l 647 972 l 440 607 l 235 972 l 1 972 l 331 401 z m 194 1050 l 339 1050 l 439 1149 l 539 1050 l 683 1050 l 526 1256 l 350 1256 z "},"Ÿ":{"ha":881,"x_min":0,"x_max":0,"o":"m 331 0 l 550 0 l 550 401 l 879 972 l 647 972 l 440 607 l 235 972 l 1 972 l 331 401 z m 199 1064 l 385 1064 l 385 1256 l 199 1256 z m 494 1064 l 682 1064 l 682 1256 l 494 1256 z "},"Ỳ":{"ha":881,"x_min":0,"x_max":0,"o":"m 331 0 l 550 0 l 550 401 l 879 972 l 647 972 l 440 607 l 235 972 l 1 972 l 331 401 z m 203 1256 l 372 1050 l 515 1050 l 435 1256 z "},"Z":{"ha":843,"x_min":0,"x_max":0,"o":"m 38 0 l 793 0 l 793 189 l 294 189 l 789 797 l 789 972 l 60 972 l 60 785 l 538 785 l 38 175 z "},"Ź":{"ha":843,"x_min":0,"x_max":0,"o":"m 38 0 l 793 0 l 793 189 l 294 189 l 789 797 l 789 972 l 60 972 l 60 785 l 538 785 l 38 175 z m 331 1050 l 474 1050 l 643 1256 l 411 1256 z "},"Ž":{"ha":843,"x_min":0,"x_max":0,"o":"m 38 0 l 793 0 l 793 189 l 294 189 l 789 797 l 789 972 l 60 972 l 60 785 l 538 785 l 38 175 z m 182 1256 l 338 1050 l 514 1050 l 671 1256 l 526 1256 l 426 1157 l 326 1256 z "},"Ż":{"ha":843,"x_min":0,"x_max":0,"o":"m 38 0 l 793 0 l 793 189 l 294 189 l 789 797 l 789 972 l 60 972 l 60 785 l 538 785 l 38 175 z m 321 1060 l 536 1060 l 536 1256 l 321 1256 z "},"a":{"ha":751,"x_min":0,"x_max":0,"o":"m 475 449 l 475 444 l 349 432 b 46 197 147 411 46 336 b 278 -11 46 81 142 -11 b 475 89 356 -11 435 28 l 475 0 l 672 0 l 672 415 b 353 711 672 613 543 711 b 53 485 203 711 75 622 l 231 451 b 353 560 238 519 286 560 b 475 449 428 560 475 518 z m 240 204 b 344 286 240 244 275 279 l 475 301 l 475 296 l 475 293 l 475 289 b 328 135 474 208 419 135 b 240 204 271 135 240 165 z m 475 292 l 475 296 l 475 293 l 475 293 z "},"á":{"ha":751,"x_min":0,"x_max":0,"o":"m 475 449 l 475 444 l 349 432 b 46 197 147 411 46 336 b 278 -11 46 81 142 -11 b 475 89 356 -11 435 28 l 475 0 l 672 0 l 672 415 b 353 711 672 613 543 711 b 53 485 203 711 75 622 l 231 451 b 353 560 238 519 286 560 b 475 449 428 560 475 518 z m 240 204 b 344 286 240 244 275 279 l 475 301 l 475 296 l 475 293 l 475 289 b 328 135 474 208 419 135 b 240 204 271 135 240 165 z m 265 778 l 408 778 l 578 983 l 346 983 z m 475 292 l 475 296 l 475 293 l 475 293 z "},"ă":{"ha":751,"x_min":0,"x_max":0,"o":"m 475 449 l 475 444 l 349 432 b 46 197 147 411 46 336 b 278 -11 46 81 142 -11 b 475 89 356 -11 435 28 l 475 0 l 672 0 l 672 415 b 353 711 672 613 543 711 b 53 485 203 711 75 622 l 231 451 b 353 560 238 519 286 560 b 475 449 428 560 475 518 z m 163 967 b 361 774 163 856 247 774 b 563 967 478 774 563 856 l 417 967 b 361 901 417 926 396 901 b 308 967 328 901 308 926 z m 240 204 b 344 286 240 244 275 279 l 475 301 l 475 296 l 475 293 l 475 289 b 328 135 474 208 419 135 b 240 204 271 135 240 165 z m 475 292 l 475 296 l 475 293 l 475 293 z "},"â":{"ha":751,"x_min":0,"x_max":0,"o":"m 475 449 l 475 444 l 349 432 b 46 197 147 411 46 336 b 278 -11 46 81 142 -11 b 475 89 356 -11 435 28 l 475 0 l 672 0 l 672 415 b 353 711 672 613 543 711 b 53 485 203 711 75 622 l 231 451 b 353 560 238 519 286 560 b 475 449 428 560 475 518 z m 117 778 l 261 778 l 361 876 l 461 778 l 606 778 l 449 983 l 272 983 z m 240 204 b 344 286 240 244 275 279 l 475 301 l 475 296 l 475 293 l 475 289 b 328 135 474 208 419 135 b 240 204 271 135 240 165 z m 475 292 l 475 296 l 475 293 l 475 293 z "},"ä":{"ha":751,"x_min":0,"x_max":0,"o":"m 475 449 l 475 444 l 349 432 b 46 197 147 411 46 336 b 278 -11 46 81 142 -11 b 475 89 356 -11 435 28 l 475 0 l 672 0 l 672 415 b 353 711 672 613 543 711 b 53 485 203 711 75 622 l 231 451 b 353 560 238 519 286 560 b 475 449 428 560 475 518 z m 121 792 l 307 792 l 307 983 l 121 983 z m 240 204 b 344 286 240 244 275 279 l 475 301 l 475 296 l 475 293 l 475 289 b 328 135 474 208 419 135 b 240 204 271 135 240 165 z m 417 792 l 604 792 l 604 983 l 417 983 z m 475 292 l 475 296 l 475 293 l 475 293 z "},"à":{"ha":751,"x_min":0,"x_max":0,"o":"m 475 449 l 475 444 l 349 432 b 46 197 147 411 46 336 b 278 -11 46 81 142 -11 b 475 89 356 -11 435 28 l 475 0 l 672 0 l 672 415 b 353 711 672 613 543 711 b 53 485 203 711 75 622 l 231 451 b 353 560 238 519 286 560 b 475 449 428 560 475 518 z m 125 983 l 294 778 l 438 778 l 357 983 z m 240 204 b 344 286 240 244 275 279 l 475 301 l 475 296 l 475 293 l 475 289 b 328 135 474 208 419 135 b 240 204 271 135 240 165 z m 475 292 l 475 296 l 475 293 l 475 293 z "},"ā":{"ha":751,"x_min":0,"x_max":0,"o":"m 475 449 l 475 444 l 349 432 b 46 197 147 411 46 336 b 278 -11 46 81 142 -11 b 475 89 356 -11 435 28 l 475 0 l 672 0 l 672 415 b 353 711 672 613 543 711 b 53 485 203 711 75 622 l 231 451 b 353 560 238 519 286 560 b 475 449 428 560 475 518 z m 164 807 l 557 807 l 557 960 l 164 960 z m 240 204 b 344 286 240 244 275 279 l 475 301 l 475 296 l 475 293 l 475 289 b 328 135 474 208 419 135 b 240 204 271 135 240 165 z m 475 292 l 475 296 l 475 293 l 475 293 z "},"ą":{"ha":751,"x_min":0,"x_max":0,"o":"m 475 449 l 475 444 l 349 432 b 46 197 147 411 46 336 b 278 -11 46 81 142 -11 b 475 89 356 -11 435 28 l 475 0 l 524 0 b 475 -121 494 -35 475 -82 b 647 -264 475 -207 544 -264 b 729 -254 682 -264 718 -258 l 711 -121 b 679 -125 707 -122 694 -125 b 631 -81 650 -125 631 -110 b 672 0 631 -50 656 -18 l 672 415 b 353 711 672 613 543 711 b 53 485 203 711 75 622 l 231 451 b 353 560 238 519 286 560 b 475 449 428 560 475 518 z m 240 204 b 344 286 240 244 275 279 l 475 301 l 475 296 l 475 293 l 475 289 b 328 135 474 208 419 135 b 240 204 271 135 240 165 z m 475 292 l 475 296 l 475 293 l 475 293 z "},"å":{"ha":751,"x_min":0,"x_max":0,"o":"m 475 449 l 475 444 l 349 432 b 46 197 147 411 46 336 b 278 -11 46 81 142 -11 b 475 89 356 -11 435 28 l 475 0 l 672 0 l 672 415 b 353 711 672 613 543 711 b 53 485 203 711 75 622 l 231 451 b 353 560 238 519 286 560 b 475 449 428 560 475 518 z m 196 907 b 363 749 196 817 267 749 b 529 907 460 749 529 817 b 363 1064 529 997 460 1064 b 196 907 267 1064 196 997 z m 240 204 b 344 286 240 244 275 279 l 475 301 l 475 296 l 475 293 l 475 289 b 328 135 474 208 419 135 b 240 204 271 135 240 165 z m 300 907 b 363 967 300 942 326 967 b 425 907 399 967 425 942 b 363 847 425 871 399 847 b 300 907 326 847 300 871 z m 475 292 l 475 296 l 475 293 l 475 293 z "},"ǻ":{"ha":751,"x_min":0,"x_max":0,"o":"m 475 449 l 475 444 l 349 432 b 46 197 147 411 46 336 b 278 -11 46 81 142 -11 b 475 89 356 -11 435 28 l 475 0 l 672 0 l 672 415 b 353 711 672 613 543 711 b 53 485 203 711 75 622 l 231 451 b 353 560 238 519 286 560 b 475 449 428 560 475 518 z m 196 907 b 363 749 196 817 267 749 b 529 907 460 749 529 817 b 449 1043 529 967 499 1017 l 618 1249 l 386 1249 l 311 1057 b 196 907 243 1038 196 981 z m 240 204 b 344 286 240 244 275 279 l 475 301 l 475 296 l 475 293 l 475 289 b 328 135 474 208 419 135 b 240 204 271 135 240 165 z m 300 907 b 363 967 300 942 326 967 b 425 907 399 967 425 942 b 363 847 425 871 399 847 b 300 907 326 847 300 871 z m 475 292 l 475 296 l 475 293 l 475 293 z "},"ã":{"ha":751,"x_min":0,"x_max":0,"o":"m 475 449 l 475 444 l 349 432 b 46 197 147 411 46 336 b 278 -11 46 81 142 -11 b 475 89 356 -11 435 28 l 475 0 l 672 0 l 672 415 b 353 711 672 613 543 711 b 53 485 203 711 75 622 l 231 451 b 353 560 238 519 286 560 b 475 449 428 560 475 518 z m 75 801 l 213 781 b 264 853 219 829 236 853 b 336 821 290 853 304 842 b 458 783 372 797 413 783 b 647 979 567 783 643 861 l 508 999 b 458 926 503 950 486 926 b 388 958 432 926 419 939 b 264 996 346 985 307 996 b 75 801 156 996 79 917 z m 240 204 b 344 286 240 244 275 279 l 475 301 l 475 296 l 475 293 l 475 289 b 328 135 474 208 419 135 b 240 204 271 135 240 165 z m 475 292 l 475 296 l 475 293 l 475 293 z "},"æ":{"ha":1247,"x_min":0,"x_max":0,"o":"m 490 449 l 490 429 l 360 429 b 46 197 150 429 46 336 b 318 -11 46 81 144 -11 b 585 106 436 -11 526 32 b 857 -11 644 36 735 -11 b 1190 197 1024 -11 1149 65 l 999 249 b 863 158 983 190 932 158 b 699 292 776 158 718 206 l 1201 292 b 1204 368 1203 307 1204 340 b 844 711 1204 524 1097 711 b 608 625 742 711 664 678 b 357 711 550 682 463 711 b 60 489 204 711 83 622 l 231 454 b 357 564 235 517 288 564 b 490 449 436 564 490 518 z m 240 204 b 350 290 240 253 278 290 l 490 290 b 338 129 490 207 435 129 b 240 204 282 129 240 161 z m 701 436 b 844 560 721 518 771 560 b 986 436 935 560 979 507 z "},"ǽ":{"ha":1247,"x_min":0,"x_max":0,"o":"m 490 449 l 490 429 l 360 429 b 46 197 150 429 46 336 b 318 -11 46 81 144 -11 b 585 106 436 -11 526 32 b 857 -11 644 36 735 -11 b 1190 197 1024 -11 1149 65 l 999 249 b 863 158 983 190 932 158 b 699 292 776 158 718 206 l 1201 292 b 1204 368 1203 307 1204 340 b 844 711 1204 524 1097 711 b 608 625 742 711 664 678 b 357 711 550 682 463 711 b 60 489 204 711 83 622 l 231 454 b 357 564 235 517 288 564 b 490 449 436 564 490 518 z m 240 204 b 350 290 240 253 278 290 l 490 290 b 338 129 490 207 435 129 b 240 204 282 129 240 161 z m 567 778 l 710 778 l 879 983 l 647 983 z m 701 436 b 844 560 721 518 771 560 b 986 436 935 560 979 507 z "},"b":{"ha":843,"x_min":0,"x_max":0,"o":"m 469 -11 b 799 350 675 -11 799 131 b 472 711 799 569 675 711 b 283 633 388 711 322 681 l 283 983 l 79 983 l 79 0 l 283 0 l 283 69 b 469 -11 319 19 390 -11 z m 271 350 b 436 538 271 463 336 538 b 600 350 533 538 600 463 b 436 163 600 238 533 163 b 271 350 336 163 271 238 z "},"c":{"ha":788,"x_min":0,"x_max":0,"o":"m 403 -11 b 742 228 588 -11 717 81 l 543 268 b 411 163 529 204 483 163 b 254 350 317 163 254 236 b 411 538 254 464 315 538 b 546 424 483 538 535 493 l 743 463 b 403 711 721 617 590 711 b 44 350 192 711 44 563 b 403 -11 44 138 192 -11 z "},"ć":{"ha":788,"x_min":0,"x_max":0,"o":"m 403 -11 b 742 228 588 -11 717 81 l 543 268 b 411 163 529 204 483 163 b 254 350 317 163 254 236 b 411 538 254 464 315 538 b 546 424 483 538 535 493 l 743 463 b 403 711 721 617 590 711 b 44 350 192 711 44 563 b 403 -11 44 138 192 -11 z m 306 778 l 449 778 l 618 983 l 386 983 z "},"č":{"ha":788,"x_min":0,"x_max":0,"o":"m 403 -11 b 742 228 588 -11 717 81 l 543 268 b 411 163 529 204 483 163 b 254 350 317 163 254 236 b 411 538 254 464 315 538 b 546 424 483 538 535 493 l 743 463 b 403 711 721 617 590 711 b 44 350 192 711 44 563 b 403 -11 44 138 192 -11 z m 157 983 l 313 778 l 489 778 l 646 983 l 501 983 l 401 885 l 301 983 z "},"ç":{"ha":788,"x_min":0,"x_max":0,"o":"m 44 350 b 343 -7 44 158 164 18 l 179 -206 l 411 -206 l 493 -3 b 742 228 629 22 721 106 l 543 268 b 411 163 529 204 483 163 b 254 350 317 163 254 236 b 411 538 254 464 315 538 b 546 424 483 538 535 493 l 743 463 b 403 711 721 617 590 711 b 44 350 192 711 44 563 z "},"ĉ":{"ha":788,"x_min":0,"x_max":0,"o":"m 403 -11 b 742 228 588 -11 717 81 l 543 268 b 411 163 529 204 483 163 b 254 350 317 163 254 236 b 411 538 254 464 315 538 b 546 424 483 538 535 493 l 743 463 b 403 711 721 617 590 711 b 44 350 192 711 44 563 b 403 -11 44 138 192 -11 z m 156 778 l 300 778 l 400 876 l 500 778 l 644 778 l 488 983 l 311 983 z "},"ċ":{"ha":788,"x_min":0,"x_max":0,"o":"m 403 -11 b 742 228 588 -11 717 81 l 543 268 b 411 163 529 204 483 163 b 254 350 317 163 254 236 b 411 538 254 464 315 538 b 546 424 483 538 535 493 l 743 463 b 403 711 721 617 590 711 b 44 350 192 711 44 563 b 403 -11 44 138 192 -11 z m 296 788 l 511 788 l 511 983 l 296 983 z "},"d":{"ha":843,"x_min":0,"x_max":0,"o":"m 374 -11 b 560 69 453 -11 524 19 l 560 0 l 764 0 l 764 983 l 560 983 l 560 633 b 371 711 521 681 456 711 b 44 350 168 711 44 569 b 374 -11 44 131 168 -11 z m 243 350 b 407 538 243 463 310 538 b 572 350 507 538 572 463 b 407 163 572 238 507 163 b 243 350 310 163 243 238 z "},"ð":{"ha":829,"x_min":0,"x_max":0,"o":"m 414 -11 b 786 404 628 -11 785 129 b 639 857 788 608 722 756 l 738 889 l 713 983 l 563 936 b 461 1008 529 965 494 989 l 254 964 b 385 879 299 939 343 911 l 247 835 l 274 742 l 467 803 b 578 621 518 749 557 688 b 383 701 528 681 458 701 b 44 350 196 701 44 558 b 414 -11 44 142 197 -11 z m 247 350 b 414 538 247 461 314 538 b 579 350 513 538 579 461 b 414 163 579 239 513 163 b 247 350 314 163 247 239 z "},"ď":{"ha":1039,"x_min":0,"x_max":0,"o":"m 374 -11 b 560 69 453 -11 524 19 l 560 0 l 764 0 l 764 983 l 560 983 l 560 633 b 371 711 521 681 456 711 b 44 350 168 711 44 569 b 374 -11 44 131 168 -11 z m 243 350 b 407 538 243 463 310 538 b 572 350 507 538 572 463 b 407 163 572 238 507 163 b 243 350 310 163 243 238 z m 821 778 l 936 778 l 1054 1044 l 864 1044 z "},"đ":{"ha":843,"x_min":0,"x_max":0,"o":"m 374 -11 b 560 69 453 -11 524 19 l 560 0 l 764 0 l 764 778 l 865 778 l 865 914 l 764 914 l 764 983 l 560 983 l 560 914 l 407 914 l 407 778 l 560 778 l 560 633 b 371 711 521 681 456 711 b 44 350 168 711 44 569 b 374 -11 44 131 168 -11 z m 243 350 b 407 538 243 463 310 538 b 572 350 507 538 572 463 b 407 163 572 238 507 163 b 243 350 310 163 243 238 z "},"e":{"ha":796,"x_min":0,"x_max":0,"o":"m 44 350 b 404 -11 44 176 163 -11 b 738 197 571 -11 696 65 l 546 249 b 410 158 531 190 479 158 b 246 292 324 158 265 206 l 749 292 b 751 368 750 307 751 340 b 392 711 751 524 644 711 b 44 350 150 711 44 524 z m 249 436 b 392 560 268 518 318 560 b 533 436 482 560 526 507 z "},"é":{"ha":796,"x_min":0,"x_max":0,"o":"m 288 778 l 431 778 l 600 983 l 368 983 z m 44 350 b 404 -11 44 176 163 -11 b 738 197 571 -11 696 65 l 546 249 b 410 158 531 190 479 158 b 246 292 324 158 265 206 l 749 292 b 751 368 750 307 751 340 b 392 711 751 524 644 711 b 44 350 150 711 44 524 z m 249 436 b 392 560 268 518 318 560 b 533 436 482 560 526 507 z "},"ĕ":{"ha":796,"x_min":0,"x_max":0,"o":"m 383 774 b 585 967 500 774 585 856 l 439 967 b 383 901 439 926 418 901 b 331 967 350 901 331 926 l 185 967 b 383 774 185 856 269 774 z m 44 350 b 404 -11 44 176 163 -11 b 738 197 571 -11 696 65 l 546 249 b 410 158 531 190 479 158 b 246 292 324 158 265 206 l 749 292 b 751 368 750 307 751 340 b 392 711 751 524 644 711 b 44 350 150 711 44 524 z m 249 436 b 392 560 268 518 318 560 b 533 436 482 560 526 507 z "},"ě":{"ha":796,"x_min":0,"x_max":0,"o":"m 294 778 l 471 778 l 628 983 l 483 983 l 383 885 l 283 983 l 139 983 z m 44 350 b 404 -11 44 176 163 -11 b 738 197 571 -11 696 65 l 546 249 b 410 158 531 190 479 158 b 246 292 324 158 265 206 l 749 292 b 751 368 750 307 751 340 b 392 711 751 524 644 711 b 44 350 150 711 44 524 z m 249 436 b 392 560 268 518 318 560 b 533 436 482 560 526 507 z "},"ê":{"ha":796,"x_min":0,"x_max":0,"o":"m 294 983 l 139 778 l 283 778 l 383 876 l 483 778 l 628 778 l 471 983 z m 44 350 b 404 -11 44 176 163 -11 b 738 197 571 -11 696 65 l 546 249 b 410 158 531 190 479 158 b 246 292 324 158 265 206 l 749 292 b 751 368 750 307 751 340 b 392 711 751 524 644 711 b 44 350 150 711 44 524 z m 249 436 b 392 560 268 518 318 560 b 533 436 482 560 526 507 z "},"ë":{"ha":796,"x_min":0,"x_max":0,"o":"m 143 983 l 143 792 l 329 792 l 329 983 z m 44 350 b 404 -11 44 176 163 -11 b 738 197 571 -11 696 65 l 546 249 b 410 158 531 190 479 158 b 246 292 324 158 265 206 l 749 292 b 751 368 750 307 751 340 b 392 711 751 524 644 711 b 44 350 150 711 44 524 z m 249 436 b 392 560 268 518 318 560 b 533 436 482 560 526 507 z m 439 792 l 626 792 l 626 983 l 439 983 z "},"ė":{"ha":796,"x_min":0,"x_max":0,"o":"m 278 983 l 278 788 l 493 788 l 493 983 z m 44 350 b 404 -11 44 176 163 -11 b 738 197 571 -11 696 65 l 546 249 b 410 158 531 190 479 158 b 246 292 324 158 265 206 l 749 292 b 751 368 750 307 751 340 b 392 711 751 524 644 711 b 44 350 150 711 44 524 z m 249 436 b 392 560 268 518 318 560 b 533 436 482 560 526 507 z "},"è":{"ha":796,"x_min":0,"x_max":0,"o":"m 460 778 l 379 983 l 147 983 l 317 778 z m 44 350 b 404 -11 44 176 163 -11 b 738 197 571 -11 696 65 l 546 249 b 410 158 531 190 479 158 b 246 292 324 158 265 206 l 749 292 b 751 368 750 307 751 340 b 392 711 751 524 644 711 b 44 350 150 711 44 524 z m 249 436 b 392 560 268 518 318 560 b 533 436 482 560 526 507 z "},"ē":{"ha":796,"x_min":0,"x_max":0,"o":"m 186 807 l 579 807 l 579 960 l 186 960 z m 44 350 b 404 -11 44 176 163 -11 b 738 197 571 -11 696 65 l 546 249 b 410 158 531 190 479 158 b 246 292 324 158 265 206 l 749 292 b 751 368 750 307 751 340 b 392 711 751 524 644 711 b 44 350 150 711 44 524 z m 249 436 b 392 560 268 518 318 560 b 533 436 482 560 526 507 z "},"ę":{"ha":796,"x_min":0,"x_max":0,"o":"m 476 -264 b 558 -254 511 -264 547 -258 l 540 -121 b 508 -125 536 -122 524 -125 b 460 -81 479 -125 460 -110 b 500 -1 460 -51 483 -21 b 738 197 618 22 704 92 l 546 249 b 410 158 531 190 479 158 b 246 292 324 158 265 206 l 749 292 b 751 368 750 307 751 340 b 392 711 751 524 644 711 b 44 350 150 711 44 524 b 347 -7 44 190 144 19 b 304 -121 321 -42 304 -85 b 476 -264 304 -207 374 -264 z m 249 436 b 392 560 268 518 318 560 b 533 436 482 560 526 507 z "},"f":{"ha":539,"x_min":0,"x_max":0,"o":"m 136 0 l 340 0 l 340 531 l 500 531 l 500 700 l 340 700 l 340 744 b 431 843 340 806 375 843 b 500 828 453 843 475 838 l 514 992 b 403 1010 481 1004 443 1010 b 136 749 250 1010 136 917 l 136 700 l 26 700 l 26 531 l 136 531 z "},"g":{"ha":826,"x_min":0,"x_max":0,"o":"m 365 22 b 546 94 442 22 510 49 l 546 28 b 388 -104 546 -50 483 -104 b 250 -14 319 -104 260 -71 l 64 -43 b 388 -264 89 -175 224 -264 b 746 50 603 -264 746 -137 l 746 700 l 544 700 l 544 640 b 361 711 507 683 443 711 b 44 367 167 711 44 578 b 365 22 44 156 167 22 z m 243 367 b 399 538 243 471 304 538 b 556 367 494 538 556 471 b 399 196 556 263 494 196 b 243 367 304 196 243 263 z "},"ğ":{"ha":826,"x_min":0,"x_max":0,"o":"m 365 22 b 546 94 442 22 510 49 l 546 28 b 388 -104 546 -50 483 -104 b 250 -14 319 -104 260 -71 l 64 -43 b 388 -264 89 -175 224 -264 b 746 50 603 -264 746 -137 l 746 700 l 544 700 l 544 640 b 361 711 507 683 443 711 b 44 367 167 711 44 578 b 365 22 44 156 167 22 z m 199 967 b 397 774 199 856 283 774 b 599 967 514 774 599 856 l 453 967 b 397 901 453 926 432 901 b 344 967 364 901 344 926 z m 243 367 b 399 538 243 471 304 538 b 556 367 494 538 556 471 b 399 196 556 263 494 196 b 243 367 304 196 243 263 z "},"ĝ":{"ha":826,"x_min":0,"x_max":0,"o":"m 365 22 b 546 94 442 22 510 49 l 546 28 b 388 -104 546 -50 483 -104 b 250 -14 319 -104 260 -71 l 64 -43 b 388 -264 89 -175 224 -264 b 746 50 603 -264 746 -137 l 746 700 l 544 700 l 544 640 b 361 711 507 683 443 711 b 44 367 167 711 44 578 b 365 22 44 156 167 22 z m 151 778 l 296 778 l 396 876 l 496 778 l 640 778 l 483 983 l 307 983 z m 243 367 b 399 538 243 471 304 538 b 556 367 494 538 556 471 b 399 196 556 263 494 196 b 243 367 304 196 243 263 z "},"ģ":{"ha":826,"x_min":0,"x_max":0,"o":"m 365 22 b 546 94 442 22 510 49 l 546 28 b 388 -104 546 -50 483 -104 b 250 -14 319 -104 260 -71 l 64 -43 b 388 -264 89 -175 224 -264 b 746 50 603 -264 746 -137 l 746 700 l 544 700 l 544 640 b 361 711 507 683 443 711 b 44 367 167 711 44 578 b 365 22 44 156 167 22 z m 243 367 b 399 538 243 471 304 538 b 556 367 494 538 556 471 b 399 196 556 263 494 196 b 243 367 304 196 243 263 z m 318 778 l 529 778 l 564 983 l 407 983 z "},"ġ":{"ha":826,"x_min":0,"x_max":0,"o":"m 365 22 b 546 94 442 22 510 49 l 546 28 b 388 -104 546 -50 483 -104 b 250 -14 319 -104 260 -71 l 64 -43 b 388 -264 89 -175 224 -264 b 746 50 603 -264 746 -137 l 746 700 l 544 700 l 544 640 b 361 711 507 683 443 711 b 44 367 167 711 44 578 b 365 22 44 156 167 22 z m 243 367 b 399 538 243 471 304 538 b 556 367 494 538 556 471 b 399 196 556 263 494 196 b 243 367 304 196 243 263 z m 292 788 l 507 788 l 507 983 l 292 983 z "},"h":{"ha":836,"x_min":0,"x_max":0,"o":"m 79 0 l 283 0 l 283 306 b 431 531 283 450 333 531 b 554 403 506 531 554 481 l 554 0 l 757 0 l 757 456 b 496 711 757 611 654 711 b 283 606 403 711 326 671 l 283 983 l 79 983 z "},"ħ":{"ha":836,"x_min":0,"x_max":0,"o":"m 79 0 l 283 0 l 283 306 b 431 531 283 450 333 531 b 554 403 506 531 554 481 l 554 0 l 757 0 l 757 456 b 496 711 757 611 654 711 b 283 606 403 711 326 671 l 283 778 l 443 778 l 443 914 l 283 914 l 283 983 l 79 983 l 79 914 l -15 914 l -15 778 l 79 778 z "},"ĥ":{"ha":836,"x_min":0,"x_max":0,"o":"m 79 0 l 283 0 l 283 306 b 431 531 283 450 333 531 b 554 403 506 531 554 481 l 554 0 l 757 0 l 757 456 b 496 711 757 611 654 711 b 283 606 403 711 326 671 l 283 983 l 79 983 z m -64 1050 l 81 1050 l 181 1149 l 281 1050 l 425 1050 l 268 1256 l 92 1256 z "},"i":{"ha":363,"x_min":0,"x_max":0,"o":"m 79 0 l 283 0 l 283 700 l 79 700 z m 75 788 l 290 788 l 290 983 l 75 983 z "},"ı":{"ha":363,"x_min":0,"x_max":0,"o":"m 79 0 l 283 0 l 283 700 l 79 700 z "},"í":{"ha":363,"x_min":0,"x_max":0,"o":"m 79 0 l 283 0 l 283 700 l 79 700 z m 85 778 l 228 778 l 397 983 l 165 983 z "},"ĭ":{"ha":363,"x_min":0,"x_max":0,"o":"m 79 0 l 283 0 l 283 700 l 79 700 z m -18 967 b 181 774 -18 856 67 774 b 382 967 297 774 382 856 l 236 967 b 181 901 236 926 215 901 b 128 967 147 901 128 926 z "},"î":{"ha":363,"x_min":0,"x_max":0,"o":"m 79 0 l 283 0 l 283 700 l 79 700 z m -65 778 l 79 778 l 179 876 l 279 778 l 424 778 l 267 983 l 90 983 z "},"ï":{"ha":363,"x_min":0,"x_max":0,"o":"m 79 0 l 283 0 l 283 700 l 79 700 z m -61 792 l 125 792 l 125 983 l -61 983 z m 235 792 l 422 792 l 422 983 l 235 983 z "},"ì":{"ha":363,"x_min":0,"x_max":0,"o":"m 79 0 l 283 0 l 283 700 l 79 700 z m -56 983 l 114 778 l 257 778 l 176 983 z "},"ī":{"ha":363,"x_min":0,"x_max":0,"o":"m 79 0 l 283 0 l 283 700 l 79 700 z m -17 807 l 376 807 l 376 960 l -17 960 z "},"į":{"ha":363,"x_min":0,"x_max":0,"o":"m 79 0 l 135 0 b 86 -121 106 -35 86 -82 b 258 -264 86 -207 156 -264 b 340 -254 293 -264 329 -258 l 322 -121 b 290 -125 318 -122 306 -125 b 242 -81 261 -125 242 -110 b 283 0 242 -50 267 -18 l 283 700 l 79 700 z m 75 788 l 290 788 l 290 983 l 75 983 z "},"ĩ":{"ha":363,"x_min":0,"x_max":0,"o":"m 79 0 l 283 0 l 283 700 l 79 700 z m -106 801 l 32 781 b 83 853 39 829 56 853 b 156 821 110 853 124 842 b 278 783 192 797 232 783 b 467 979 386 783 463 861 l 328 999 b 278 926 322 950 306 926 b 207 958 251 926 239 939 b 83 996 165 985 126 996 b -106 801 -25 996 -101 917 z "},"j":{"ha":368,"x_min":0,"x_max":0,"o":"m 11 -264 b 294 11 183 -264 294 -157 l 294 700 l 92 700 l 92 39 b -12 -87 92 -42 56 -87 b -44 -86 -26 -87 -26 -87 l -40 -261 b 11 -264 -40 -261 -3 -264 z m 88 788 l 303 788 l 303 983 l 88 983 z "},"ȷ":{"ha":368,"x_min":0,"x_max":0,"o":"m 11 -264 b 294 11 183 -264 294 -157 l 294 700 l 92 700 l 92 39 b -12 -87 92 -42 56 -87 b -44 -86 -26 -87 -26 -87 l -40 -261 b 11 -264 -40 -261 -3 -264 z "},"ĵ":{"ha":368,"x_min":0,"x_max":0,"o":"m 11 -264 b 294 11 183 -264 294 -157 l 294 700 l 92 700 l 92 39 b -12 -87 92 -42 56 -87 b -44 -86 -26 -87 -26 -87 l -40 -261 b 11 -264 -40 -261 -3 -264 z m -53 778 l 92 778 l 192 876 l 292 778 l 436 778 l 279 983 l 103 983 z "},"k":{"ha":801,"x_min":0,"x_max":0,"o":"m 285 0 l 285 213 l 361 289 l 551 0 l 794 0 l 497 425 l 774 700 l 518 700 l 285 471 l 285 983 l 79 983 l 79 0 z "},"ķ":{"ha":801,"x_min":0,"x_max":0,"o":"m 285 0 l 285 213 l 361 289 l 551 0 l 794 0 l 497 425 l 774 700 l 518 700 l 285 471 l 285 983 l 79 983 l 79 0 z m 228 -264 l 371 -264 l 496 -58 l 278 -58 z "},"ĸ":{"ha":801,"x_min":0,"x_max":0,"o":"m 285 700 l 79 700 l 79 0 l 285 0 l 285 214 l 361 290 l 551 0 l 794 0 l 497 425 l 772 700 l 518 700 l 285 469 z "},"l":{"ha":363,"x_min":0,"x_max":0,"o":"m 79 0 l 283 0 l 283 983 l 79 983 z "},"ĺ":{"ha":363,"x_min":0,"x_max":0,"o":"m 79 0 l 283 0 l 283 983 l 79 983 z m 83 1050 l 226 1050 l 396 1256 l 164 1256 z "},"ľ":{"ha":558,"x_min":0,"x_max":0,"o":"m 79 0 l 283 0 l 283 983 l 79 983 z m 340 778 l 456 778 l 574 1044 l 383 1044 z "},"ļ":{"ha":363,"x_min":0,"x_max":0,"o":"m 79 0 l 283 0 l 283 983 l 79 983 z m 26 -264 l 169 -264 l 294 -58 l 76 -58 z "},"ŀ":{"ha":660,"x_min":0,"x_max":0,"o":"m 79 0 l 283 0 l 283 983 l 79 983 z m 344 381 l 554 381 l 554 583 l 344 583 z "},"ł":{"ha":449,"x_min":0,"x_max":0,"o":"m 446 529 l 446 699 l 326 643 l 326 983 l 122 983 l 122 547 l 4 492 l 4 322 l 122 378 l 122 0 l 326 0 l 326 474 z "},"m":{"ha":1258,"x_min":0,"x_max":0,"o":"m 79 0 l 283 0 l 283 358 b 415 540 283 469 332 540 b 528 417 486 540 528 493 l 528 0 l 729 0 l 729 358 b 863 540 729 471 778 540 b 976 417 935 540 976 493 l 976 0 l 1179 0 l 1179 476 b 928 711 1179 610 1079 711 b 692 586 814 711 729 653 b 481 711 657 667 589 711 b 283 606 388 711 324 668 l 283 700 l 79 700 z "},"n":{"ha":833,"x_min":0,"x_max":0,"o":"m 79 0 l 283 0 l 283 307 b 431 531 283 451 333 531 b 551 403 504 531 551 479 l 551 0 l 754 0 l 754 457 b 497 711 754 611 651 711 b 283 607 401 711 325 668 l 283 700 l 79 700 z "},"ń":{"ha":833,"x_min":0,"x_max":0,"o":"m 79 0 l 283 0 l 283 307 b 431 531 283 451 333 531 b 551 403 504 531 551 479 l 551 0 l 754 0 l 754 457 b 497 711 754 611 651 711 b 283 607 401 711 325 668 l 283 700 l 79 700 z m 318 778 l 461 778 l 631 983 l 399 983 z "},"ŉ":{"ha":839,"x_min":0,"x_max":0,"o":"m 79 778 l 194 778 l 313 1044 l 122 1044 z m 85 0 l 289 0 l 289 307 b 436 531 289 451 339 531 b 557 403 510 531 557 479 l 557 0 l 760 0 l 760 457 b 503 711 760 611 657 711 b 289 607 407 711 331 668 l 289 700 l 85 700 z "},"ň":{"ha":833,"x_min":0,"x_max":0,"o":"m 79 0 l 283 0 l 283 307 b 431 531 283 451 333 531 b 551 403 504 531 551 479 l 551 0 l 754 0 l 754 457 b 497 711 754 611 651 711 b 283 607 401 711 325 668 l 283 700 l 79 700 z m 169 983 l 325 778 l 501 778 l 658 983 l 514 983 l 414 885 l 314 983 z "},"ņ":{"ha":833,"x_min":0,"x_max":0,"o":"m 79 0 l 283 0 l 283 307 b 431 531 283 451 333 531 b 551 403 504 531 551 479 l 551 0 l 754 0 l 754 457 b 497 711 754 611 651 711 b 283 607 401 711 325 668 l 283 700 l 79 700 z m 261 -264 l 404 -264 l 529 -58 l 311 -58 z "},"ñ":{"ha":833,"x_min":0,"x_max":0,"o":"m 79 0 l 283 0 l 283 307 b 431 531 283 451 333 531 b 551 403 504 531 551 479 l 551 0 l 754 0 l 754 457 b 497 711 754 611 651 711 b 283 607 401 711 325 668 l 283 700 l 79 700 z m 128 801 l 265 781 b 317 853 272 829 289 853 b 389 821 343 853 357 842 b 511 783 425 797 465 783 b 700 979 619 783 696 861 l 561 999 b 511 926 556 950 539 926 b 440 958 485 926 472 939 b 317 996 399 985 360 996 b 128 801 208 996 132 917 z "},"ŋ":{"ha":833,"x_min":0,"x_max":0,"o":"m 447 -264 b 754 -11 631 -264 754 -162 l 754 457 b 497 711 754 611 651 711 b 283 607 401 711 325 668 l 283 700 l 79 700 l 79 0 l 283 0 l 283 307 b 431 531 283 451 333 531 b 551 403 504 531 551 479 l 551 49 b 440 -89 551 -50 517 -87 b 413 -87 432 -89 421 -89 l 415 -262 b 447 -264 426 -264 436 -264 z "},"o":{"ha":826,"x_min":0,"x_max":0,"o":"m 414 -11 b 783 350 628 -11 783 142 b 414 711 783 558 628 711 b 44 350 197 711 44 558 b 414 -11 44 142 197 -11 z m 247 350 b 414 538 247 461 314 538 b 579 350 513 538 579 461 b 414 163 579 239 513 163 b 247 350 314 163 247 239 z "},"ó":{"ha":826,"x_min":0,"x_max":0,"o":"m 414 -11 b 783 350 628 -11 783 142 b 414 711 783 558 628 711 b 44 350 197 711 44 558 b 414 -11 44 142 197 -11 z m 247 350 b 414 538 247 461 314 538 b 579 350 513 538 579 461 b 414 163 579 239 513 163 b 247 350 314 163 247 239 z m 317 778 l 460 778 l 629 983 l 397 983 z "},"ŏ":{"ha":826,"x_min":0,"x_max":0,"o":"m 414 -11 b 783 350 628 -11 783 142 b 414 711 783 558 628 711 b 44 350 197 711 44 558 b 414 -11 44 142 197 -11 z m 214 967 b 413 774 214 856 299 774 b 614 967 529 774 614 856 l 468 967 b 413 901 468 926 447 901 b 360 967 379 901 360 926 z m 247 350 b 414 538 247 461 314 538 b 579 350 513 538 579 461 b 414 163 579 239 513 163 b 247 350 314 163 247 239 z "},"ô":{"ha":826,"x_min":0,"x_max":0,"o":"m 414 -11 b 783 350 628 -11 783 142 b 414 711 783 558 628 711 b 44 350 197 711 44 558 b 414 -11 44 142 197 -11 z m 168 778 l 313 778 l 413 876 l 513 778 l 657 778 l 500 983 l 324 983 z m 247 350 b 414 538 247 461 314 538 b 579 350 513 538 579 461 b 414 163 579 239 513 163 b 247 350 314 163 247 239 z "},"ö":{"ha":826,"x_min":0,"x_max":0,"o":"m 414 -11 b 783 350 628 -11 783 142 b 414 711 783 558 628 711 b 44 350 197 711 44 558 b 414 -11 44 142 197 -11 z m 172 792 l 358 792 l 358 983 l 172 983 z m 247 350 b 414 538 247 461 314 538 b 579 350 513 538 579 461 b 414 163 579 239 513 163 b 247 350 314 163 247 239 z m 468 792 l 656 792 l 656 983 l 468 983 z "},"ò":{"ha":826,"x_min":0,"x_max":0,"o":"m 414 -11 b 783 350 628 -11 783 142 b 414 711 783 558 628 711 b 44 350 197 711 44 558 b 414 -11 44 142 197 -11 z m 176 983 l 346 778 l 489 778 l 408 983 z m 247 350 b 414 538 247 461 314 538 b 579 350 513 538 579 461 b 414 163 579 239 513 163 b 247 350 314 163 247 239 z "},"ő":{"ha":826,"x_min":0,"x_max":0,"o":"m 414 -11 b 783 350 628 -11 783 142 b 414 711 783 558 628 711 b 44 350 197 711 44 558 b 414 -11 44 142 197 -11 z m 194 778 l 351 778 l 444 983 l 275 983 z m 247 350 b 414 538 247 461 314 538 b 579 350 513 538 579 461 b 414 163 579 239 513 163 b 247 350 314 163 247 239 z m 442 778 l 597 778 l 703 983 l 522 983 z "},"ō":{"ha":826,"x_min":0,"x_max":0,"o":"m 414 -11 b 783 350 628 -11 783 142 b 414 711 783 558 628 711 b 44 350 197 711 44 558 b 414 -11 44 142 197 -11 z m 215 807 l 608 807 l 608 960 l 215 960 z m 247 350 b 414 538 247 461 314 538 b 579 350 513 538 579 461 b 414 163 579 239 513 163 b 247 350 314 163 247 239 z "},"ø":{"ha":826,"x_min":0,"x_max":0,"o":"m 414 -11 b 783 350 628 -11 783 142 b 700 585 783 442 753 524 l 769 665 l 674 749 l 601 665 b 414 711 547 694 483 711 b 44 350 197 711 44 558 b 126 115 44 258 74 176 l 57 35 l 153 -49 l 225 35 b 414 -11 279 6 343 -11 z m 247 350 b 414 538 247 461 314 538 b 481 525 438 538 460 533 l 261 271 b 247 350 251 294 247 321 z m 347 176 l 565 429 b 579 350 575 406 579 379 b 414 163 579 239 513 163 b 347 176 389 163 367 167 z "},"õ":{"ha":826,"x_min":0,"x_max":0,"o":"m 414 -11 b 783 350 628 -11 783 142 b 414 711 783 558 628 711 b 44 350 197 711 44 558 b 414 -11 44 142 197 -11 z m 126 801 l 264 781 b 315 853 271 829 288 853 b 388 821 342 853 356 842 b 510 783 424 797 464 783 b 699 979 618 783 694 861 l 560 999 b 510 926 554 950 538 926 b 439 958 483 926 471 939 b 315 996 397 985 358 996 b 126 801 207 996 131 917 z m 247 350 b 414 538 247 461 314 538 b 579 350 513 538 579 461 b 414 163 579 239 513 163 b 247 350 314 163 247 239 z "},"œ":{"ha":1333,"x_min":0,"x_max":0,"o":"m 414 -11 b 682 94 522 -11 615 28 b 943 -11 742 31 828 -11 b 1276 197 1110 -11 1235 65 l 1085 249 b 949 158 1069 190 1018 158 b 785 292 863 158 804 206 l 1288 292 b 1290 368 1289 307 1290 340 b 931 711 1290 524 1183 711 b 678 610 818 711 735 671 b 414 711 613 674 521 711 b 44 350 197 711 44 558 b 414 -11 44 142 197 -11 z m 247 350 b 414 538 247 461 314 538 b 579 350 513 538 579 461 b 414 163 579 239 513 163 b 247 350 314 163 247 239 z m 788 436 b 931 560 807 518 857 560 b 1072 436 1021 560 1065 507 z "},"p":{"ha":843,"x_min":0,"x_max":0,"o":"m 79 -253 l 283 -253 l 283 54 b 463 -11 321 13 386 -11 b 800 350 663 -11 800 131 b 479 711 800 569 674 711 b 283 631 390 711 322 679 l 283 700 l 79 700 z m 271 350 b 436 538 271 463 338 538 b 600 350 535 538 600 463 b 436 163 600 238 535 163 b 271 350 338 163 271 238 z "},"þ":{"ha":843,"x_min":0,"x_max":0,"o":"m 79 -283 l 283 -283 l 283 51 b 463 -11 318 11 383 -11 b 800 350 663 -11 800 131 b 479 711 800 569 674 711 b 283 633 396 711 329 682 l 283 974 l 79 974 z m 271 350 b 435 538 271 472 336 538 b 600 350 533 538 600 472 b 435 163 600 226 533 163 b 271 350 336 163 271 226 z "},"q":{"ha":843,"x_min":0,"x_max":0,"o":"m 764 -253 l 764 700 l 560 700 l 560 631 b 364 711 521 679 453 711 b 43 350 169 711 43 569 b 381 -11 43 131 181 -11 b 560 54 457 -11 522 13 l 560 -253 z m 243 350 b 407 538 243 463 308 538 b 572 350 506 538 572 463 b 407 163 572 238 506 163 b 243 350 308 163 243 238 z "},"r":{"ha":579,"x_min":0,"x_max":0,"o":"m 551 504 l 564 700 b 489 711 544 707 513 711 b 283 579 406 711 315 654 l 283 700 l 79 700 l 79 0 l 283 0 l 283 253 b 463 521 283 451 371 521 b 551 504 494 521 528 515 z "},"ŕ":{"ha":579,"x_min":0,"x_max":0,"o":"m 551 504 l 564 700 b 489 711 544 707 513 711 b 283 579 406 711 315 654 l 283 700 l 79 700 l 79 0 l 283 0 l 283 253 b 463 521 283 451 371 521 b 551 504 494 521 528 515 z m 224 778 l 367 778 l 536 983 l 304 983 z "},"ř":{"ha":579,"x_min":0,"x_max":0,"o":"m 551 504 l 564 700 b 489 711 544 707 513 711 b 283 579 406 711 315 654 l 283 700 l 79 700 l 79 0 l 283 0 l 283 253 b 463 521 283 451 371 521 b 551 504 494 521 528 515 z m 75 983 l 231 778 l 407 778 l 564 983 l 419 983 l 319 885 l 219 983 z "},"ŗ":{"ha":579,"x_min":0,"x_max":0,"o":"m 551 504 l 564 700 b 489 711 544 707 513 711 b 283 579 406 711 315 654 l 283 700 l 79 700 l 79 0 l 283 0 l 283 253 b 463 521 283 451 371 521 b 551 504 494 521 528 515 z m 18 -264 l 161 -264 l 286 -58 l 68 -58 z "},"s":{"ha":640,"x_min":0,"x_max":0,"o":"m 329 -11 b 604 213 493 -11 604 92 b 228 515 604 496 228 404 b 306 565 228 546 260 565 b 428 472 353 565 410 536 l 592 540 b 299 711 560 642 442 711 b 49 510 144 711 49 619 b 419 208 49 244 419 318 b 329 143 419 169 383 143 b 181 263 251 143 197 197 l 17 199 b 329 -11 53 93 158 -11 z "},"ś":{"ha":640,"x_min":0,"x_max":0,"o":"m 329 -11 b 604 213 493 -11 604 92 b 228 515 604 496 228 404 b 306 565 228 546 260 565 b 428 472 353 565 410 536 l 592 540 b 299 711 560 642 442 711 b 49 510 144 711 49 619 b 419 208 49 244 419 318 b 329 143 419 169 383 143 b 181 263 251 143 197 197 l 17 199 b 329 -11 53 93 158 -11 z m 219 778 l 363 778 l 532 983 l 300 983 z "},"š":{"ha":640,"x_min":0,"x_max":0,"o":"m 329 -11 b 604 213 493 -11 604 92 b 228 515 604 496 228 404 b 306 565 228 546 260 565 b 428 472 353 565 410 536 l 592 540 b 299 711 560 642 442 711 b 49 510 144 711 49 619 b 419 208 49 244 419 318 b 329 143 419 169 383 143 b 181 263 251 143 197 197 l 17 199 b 329 -11 53 93 158 -11 z m 71 983 l 226 778 l 403 778 l 560 983 l 415 983 l 315 885 l 215 983 z "},"ş":{"ha":640,"x_min":0,"x_max":0,"o":"m 17 199 b 257 -4 47 108 129 19 l 92 -206 l 324 -206 l 406 -3 b 604 213 526 24 604 111 b 228 515 604 496 228 404 b 306 565 228 546 260 565 b 428 472 353 565 410 536 l 592 540 b 299 711 560 642 442 711 b 49 510 144 711 49 619 b 419 208 49 244 419 318 b 329 143 419 169 383 143 b 181 263 251 143 197 197 z "},"ŝ":{"ha":640,"x_min":0,"x_max":0,"o":"m 329 -11 b 604 213 493 -11 604 92 b 228 515 604 496 228 404 b 306 565 228 546 260 565 b 428 472 353 565 410 536 l 592 540 b 299 711 560 642 442 711 b 49 510 144 711 49 619 b 419 208 49 244 419 318 b 329 143 419 169 383 143 b 181 263 251 143 197 197 l 17 199 b 329 -11 53 93 158 -11 z m 69 778 l 214 778 l 314 876 l 414 778 l 558 778 l 401 983 l 225 983 z "},"ș":{"ha":640,"x_min":0,"x_max":0,"o":"m 329 -11 b 604 213 493 -11 604 92 b 228 515 604 496 228 404 b 306 565 228 546 260 565 b 428 472 353 565 410 536 l 592 540 b 299 711 560 642 442 711 b 49 510 144 711 49 619 b 419 208 49 244 419 318 b 329 143 419 169 383 143 b 181 263 251 143 197 197 l 17 199 b 329 -11 53 93 158 -11 z m 143 -264 l 286 -264 l 411 -58 l 193 -58 z "},"ß":{"ha":883,"x_min":0,"x_max":0,"o":"m 511 -11 b 842 289 707 -11 842 85 b 651 553 842 433 767 514 b 768 739 718 572 768 647 b 447 983 768 879 644 983 b 108 692 272 983 108 885 l 108 615 l 32 615 l 32 424 l 108 424 l 108 0 l 329 0 l 329 694 b 447 825 329 781 379 825 b 563 725 521 825 563 779 b 428 615 563 653 510 615 l 389 615 l 389 424 l 432 424 b 622 296 551 424 622 386 b 492 176 622 225 572 178 b 389 189 457 176 419 182 l 389 0 b 511 -11 417 -6 469 -11 z "},"ſ":{"ha":535,"x_min":0,"x_max":0,"o":"m 139 0 l 338 0 l 338 740 b 433 843 338 807 378 843 b 501 828 454 843 478 838 l 515 992 b 406 1010 482 1004 444 1010 b 139 749 253 1010 139 917 l 139 700 l 29 700 l 29 542 l 139 542 z "},"t":{"ha":549,"x_min":0,"x_max":0,"o":"m 515 7 l 501 183 b 422 167 478 171 447 167 b 339 265 372 167 339 203 l 339 531 l 508 531 l 508 700 l 339 700 l 339 903 l 135 903 l 135 700 l 24 700 l 24 531 l 135 531 l 135 239 b 401 -11 135 69 250 -11 b 515 7 443 -11 482 -4 z "},"ŧ":{"ha":549,"x_min":0,"x_max":0,"o":"m 515 7 l 501 183 b 422 167 478 171 447 167 b 339 265 372 167 339 203 l 339 283 l 486 283 l 486 419 l 339 419 l 339 531 l 508 531 l 508 700 l 339 700 l 339 903 l 135 903 l 135 700 l 24 700 l 24 531 l 135 531 l 135 419 l 28 419 l 28 283 l 135 283 l 135 239 b 401 -11 135 69 250 -11 b 515 7 443 -11 482 -4 z "},"ť":{"ha":549,"x_min":0,"x_max":0,"o":"m 515 7 l 501 183 b 422 167 478 171 447 167 b 339 265 372 167 339 203 l 339 531 l 508 531 l 508 700 l 339 700 l 339 903 l 135 903 l 135 700 l 24 700 l 24 531 l 135 531 l 135 239 b 401 -11 135 69 250 -11 b 515 7 443 -11 482 -4 z m 419 778 l 535 778 l 653 1044 l 463 1044 z "},"ţ":{"ha":549,"x_min":0,"x_max":0,"o":"m 515 7 l 501 183 b 422 167 478 171 447 167 b 339 265 372 167 339 203 l 339 531 l 508 531 l 508 700 l 339 700 l 339 903 l 135 903 l 135 700 l 24 700 l 24 531 l 135 531 l 135 239 b 281 10 135 118 193 43 l 104 -206 l 336 -206 l 415 -11 b 515 7 451 -10 486 -3 z "},"ț":{"ha":549,"x_min":0,"x_max":0,"o":"m 515 7 l 501 183 b 422 167 478 171 447 167 b 339 265 372 167 339 203 l 339 531 l 508 531 l 508 700 l 339 700 l 339 903 l 135 903 l 135 700 l 24 700 l 24 531 l 135 531 l 135 239 b 401 -11 135 69 250 -11 b 515 7 443 -11 482 -4 z m 156 -264 l 299 -264 l 424 -58 l 206 -58 z "},"u":{"ha":833,"x_min":0,"x_max":0,"o":"m 754 700 l 550 700 l 550 393 b 403 169 550 249 500 169 b 282 297 329 169 282 221 l 282 700 l 79 700 l 79 243 b 336 -11 79 89 182 -11 b 550 93 432 -11 508 32 l 550 0 l 754 0 z "},"ú":{"ha":833,"x_min":0,"x_max":0,"o":"m 754 700 l 550 700 l 550 393 b 403 169 550 249 500 169 b 282 297 329 169 282 221 l 282 700 l 79 700 l 79 243 b 336 -11 79 89 182 -11 b 550 93 432 -11 508 32 l 550 0 l 754 0 z m 314 778 l 457 778 l 626 983 l 394 983 z "},"ŭ":{"ha":833,"x_min":0,"x_max":0,"o":"m 754 700 l 550 700 l 550 393 b 403 169 550 249 500 169 b 282 297 329 169 282 221 l 282 700 l 79 700 l 79 243 b 336 -11 79 89 182 -11 b 550 93 432 -11 508 32 l 550 0 l 754 0 z m 211 967 b 410 774 211 856 296 774 b 611 967 526 774 611 856 l 465 967 b 410 901 465 926 444 901 b 357 967 376 901 357 926 z "},"û":{"ha":833,"x_min":0,"x_max":0,"o":"m 754 700 l 550 700 l 550 393 b 403 169 550 249 500 169 b 282 297 329 169 282 221 l 282 700 l 79 700 l 79 243 b 336 -11 79 89 182 -11 b 550 93 432 -11 508 32 l 550 0 l 754 0 z m 164 778 l 308 778 l 408 876 l 508 778 l 653 778 l 496 983 l 319 983 z "},"ü":{"ha":833,"x_min":0,"x_max":0,"o":"m 754 700 l 550 700 l 550 393 b 403 169 550 249 500 169 b 282 297 329 169 282 221 l 282 700 l 79 700 l 79 243 b 336 -11 79 89 182 -11 b 550 93 432 -11 508 32 l 550 0 l 754 0 z m 168 792 l 354 792 l 354 983 l 168 983 z m 464 792 l 651 792 l 651 983 l 464 983 z "},"ù":{"ha":833,"x_min":0,"x_max":0,"o":"m 754 700 l 550 700 l 550 393 b 403 169 550 249 500 169 b 282 297 329 169 282 221 l 282 700 l 79 700 l 79 243 b 336 -11 79 89 182 -11 b 550 93 432 -11 508 32 l 550 0 l 754 0 z m 174 983 l 343 778 l 486 778 l 406 983 z "},"ű":{"ha":833,"x_min":0,"x_max":0,"o":"m 754 700 l 550 700 l 550 393 b 403 169 550 249 500 169 b 282 297 329 169 282 221 l 282 700 l 79 700 l 79 243 b 336 -11 79 89 182 -11 b 550 93 432 -11 508 32 l 550 0 l 754 0 z m 190 778 l 347 778 l 440 983 l 271 983 z m 438 778 l 593 778 l 699 983 l 518 983 z "},"ū":{"ha":833,"x_min":0,"x_max":0,"o":"m 754 700 l 550 700 l 550 393 b 403 169 550 249 500 169 b 282 297 329 169 282 221 l 282 700 l 79 700 l 79 243 b 336 -11 79 89 182 -11 b 550 93 432 -11 508 32 l 550 0 l 754 0 z m 213 807 l 606 807 l 606 960 l 213 960 z "},"ų":{"ha":833,"x_min":0,"x_max":0,"o":"m 754 700 l 550 700 l 550 393 b 403 169 550 249 500 169 b 282 297 329 169 282 221 l 282 700 l 79 700 l 79 243 b 336 -11 79 89 182 -11 b 550 93 432 -11 508 32 l 550 0 l 599 0 b 550 -121 569 -35 550 -82 b 722 -264 550 -207 619 -264 b 804 -254 757 -264 793 -258 l 786 -121 b 754 -125 782 -122 769 -125 b 706 -81 725 -125 706 -110 b 747 0 706 -50 731 -18 l 754 0 z "},"ů":{"ha":833,"x_min":0,"x_max":0,"o":"m 754 700 l 550 700 l 550 393 b 403 169 550 249 500 169 b 282 297 329 169 282 221 l 282 700 l 79 700 l 79 243 b 336 -11 79 89 182 -11 b 550 93 432 -11 508 32 l 550 0 l 754 0 z m 243 907 b 410 749 243 817 314 749 b 576 907 507 749 576 817 b 410 1064 576 997 507 1064 b 243 907 314 1064 243 997 z m 347 907 b 410 967 347 942 374 967 b 472 907 446 967 472 942 b 410 847 472 871 446 847 b 347 907 374 847 347 871 z "},"ũ":{"ha":833,"x_min":0,"x_max":0,"o":"m 754 700 l 550 700 l 550 393 b 403 169 550 249 500 169 b 282 297 329 169 282 221 l 282 700 l 79 700 l 79 243 b 336 -11 79 89 182 -11 b 550 93 432 -11 508 32 l 550 0 l 754 0 z m 124 801 l 261 781 b 313 853 268 829 285 853 b 385 821 339 853 353 842 b 507 783 421 797 461 783 b 696 979 615 783 692 861 l 557 999 b 507 926 551 950 535 926 b 436 958 481 926 468 939 b 313 996 394 985 356 996 b 124 801 204 996 128 917 z "},"v":{"ha":710,"x_min":0,"x_max":0,"o":"m 263 0 l 447 0 l 701 700 l 496 700 l 354 236 l 213 700 l 8 700 z "},"w":{"ha":1111,"x_min":0,"x_max":0,"o":"m 246 0 l 424 0 l 557 419 l 689 0 l 867 0 l 1085 700 l 881 700 l 776 285 l 649 700 l 464 700 l 336 285 l 232 700 l 28 700 z "},"ẃ":{"ha":1111,"x_min":0,"x_max":0,"o":"m 246 0 l 424 0 l 557 419 l 689 0 l 867 0 l 1085 700 l 881 700 l 776 285 l 649 700 l 464 700 l 336 285 l 232 700 l 28 700 z m 461 778 l 604 778 l 774 983 l 542 983 z "},"ŵ":{"ha":1111,"x_min":0,"x_max":0,"o":"m 246 0 l 424 0 l 557 419 l 689 0 l 867 0 l 1085 700 l 881 700 l 776 285 l 649 700 l 464 700 l 336 285 l 232 700 l 28 700 z m 311 778 l 456 778 l 556 876 l 656 778 l 800 778 l 643 983 l 467 983 z "},"ẅ":{"ha":1111,"x_min":0,"x_max":0,"o":"m 246 0 l 424 0 l 557 419 l 689 0 l 867 0 l 1085 700 l 881 700 l 776 285 l 649 700 l 464 700 l 336 285 l 232 700 l 28 700 z m 315 792 l 501 792 l 501 983 l 315 983 z m 611 792 l 799 792 l 799 983 l 611 983 z "},"ẁ":{"ha":1111,"x_min":0,"x_max":0,"o":"m 246 0 l 424 0 l 557 419 l 689 0 l 867 0 l 1085 700 l 881 700 l 776 285 l 649 700 l 464 700 l 336 285 l 232 700 l 28 700 z m 321 983 l 490 778 l 633 778 l 553 983 z "},"x":{"ha":733,"x_min":0,"x_max":0,"o":"m 488 0 l 710 0 l 476 351 l 706 700 l 488 700 l 367 517 l 244 700 l 26 700 l 257 351 l 24 0 l 244 0 l 367 185 z "},"y":{"ha":753,"x_min":0,"x_max":0,"o":"m 536 700 l 379 294 l 229 700 l 8 700 l 278 35 l 167 -253 l 375 -253 l 744 700 z "},"ý":{"ha":753,"x_min":0,"x_max":0,"o":"m 536 700 l 379 294 l 229 700 l 8 700 l 278 35 l 167 -253 l 375 -253 l 744 700 z m 279 778 l 422 778 l 592 983 l 360 983 z "},"ŷ":{"ha":753,"x_min":0,"x_max":0,"o":"m 536 700 l 379 294 l 229 700 l 8 700 l 278 35 l 167 -253 l 375 -253 l 744 700 z m 131 778 l 275 778 l 375 876 l 475 778 l 619 778 l 463 983 l 286 983 z "},"ÿ":{"ha":753,"x_min":0,"x_max":0,"o":"m 536 700 l 379 294 l 229 700 l 8 700 l 278 35 l 167 -253 l 375 -253 l 744 700 z m 135 792 l 321 792 l 321 983 l 135 983 z m 431 792 l 618 792 l 618 983 l 431 983 z "},"ỳ":{"ha":753,"x_min":0,"x_max":0,"o":"m 536 700 l 379 294 l 229 700 l 8 700 l 278 35 l 167 -253 l 375 -253 l 744 700 z m 139 983 l 308 778 l 451 778 l 371 983 z "},"z":{"ha":692,"x_min":0,"x_max":0,"o":"m 40 0 l 651 0 l 651 169 l 290 169 l 640 544 l 640 700 l 65 700 l 65 531 l 394 531 l 40 156 z "},"ź":{"ha":692,"x_min":0,"x_max":0,"o":"m 40 0 l 651 0 l 651 169 l 290 169 l 640 544 l 640 700 l 65 700 l 65 531 l 394 531 l 40 156 z m 274 778 l 417 778 l 586 983 l 354 983 z "},"ž":{"ha":692,"x_min":0,"x_max":0,"o":"m 40 0 l 651 0 l 651 169 l 290 169 l 640 544 l 640 700 l 65 700 l 65 531 l 394 531 l 40 156 z m 125 983 l 281 778 l 457 778 l 614 983 l 469 983 l 369 885 l 269 983 z "},"ż":{"ha":692,"x_min":0,"x_max":0,"o":"m 40 0 l 651 0 l 651 169 l 290 169 l 640 544 l 640 700 l 65 700 l 65 531 l 394 531 l 40 156 z m 264 788 l 479 788 l 479 983 l 264 983 z "},"ﬁ":{"ha":869,"x_min":0,"x_max":0,"o":"m 132 0 l 331 0 l 331 531 l 601 531 l 601 0 l 806 0 l 806 700 l 331 700 l 331 740 b 426 843 331 807 372 843 b 494 828 449 843 471 838 l 508 992 b 399 1010 475 1004 438 1010 b 132 749 246 1010 132 917 l 132 700 l 26 700 l 26 531 l 132 531 z m 597 788 l 813 788 l 813 983 l 597 983 z "},"ﬂ":{"ha":907,"x_min":0,"x_max":0,"o":"m 132 0 l 331 0 l 331 531 l 622 531 l 622 0 l 826 0 l 826 983 l 622 983 l 622 700 l 331 700 l 331 740 b 426 843 331 807 372 843 b 494 828 449 843 471 838 l 508 992 b 399 1010 475 1004 438 1010 b 132 749 246 1010 132 917 l 132 700 l 26 700 l 26 531 l 132 531 z "},"ª":{"ha":464,"x_min":0,"x_max":0,"o":"m 296 817 l 296 815 l 215 806 b 25 658 88 792 25 744 b 171 526 25 585 86 526 b 296 589 221 526 271 551 l 296 533 l 419 533 l 419 797 b 219 983 419 922 338 983 b 29 839 124 983 43 928 l 142 818 b 219 889 146 863 176 889 b 296 817 267 889 296 863 z m 146 663 b 214 715 146 688 169 710 l 296 725 l 296 721 l 296 717 l 296 721 l 296 715 b 203 618 294 663 260 618 b 146 663 167 618 146 639 z "},"º":{"ha":517,"x_min":0,"x_max":0,"o":"m 258 526 b 492 756 394 526 492 624 b 258 983 492 886 394 983 b 25 756 122 983 25 886 b 258 526 25 624 122 526 z m 153 756 b 258 875 153 825 194 875 b 364 756 322 875 364 825 b 258 636 364 683 322 636 b 153 756 194 636 153 683 z "},"Δ":{"ha":960,"x_min":0,"x_max":0,"o":"m 583 972 l 376 972 l 8 0 l 951 0 z m 300 183 l 481 685 l 661 183 z "},"Ω":{"ha":1021,"x_min":0,"x_max":0,"o":"m 415 0 l 415 189 l 414 189 l 414 251 b 267 521 326 311 267 419 b 511 797 267 688 364 797 b 754 521 658 797 754 688 b 607 251 754 419 696 311 l 607 0 l 968 0 l 968 189 l 794 189 b 975 532 904 264 975 382 b 513 983 975 792 779 983 b 46 532 243 983 46 792 b 228 189 46 382 118 264 l 53 189 l 53 0 z "},"μ":{"ha":817,"x_min":0,"x_max":0,"o":"m 72 -264 l 276 -264 l 276 22 b 376 -11 307 1 340 -11 b 544 93 456 -11 521 31 l 544 0 l 747 0 l 747 700 l 544 700 l 544 393 b 396 169 544 249 493 169 b 276 297 324 169 276 221 l 276 700 l 72 700 z "},"π":{"ha":896,"x_min":0,"x_max":0,"o":"m 50 535 l 179 535 l 179 0 l 376 0 l 376 535 l 526 535 l 526 264 b 808 -11 526 96 638 -11 b 861 -8 824 -11 861 -8 l 865 167 b 833 165 847 165 846 165 b 729 292 765 165 729 211 l 729 535 l 844 535 l 844 700 l 50 700 z "},"Ⅰ":{"ha":693,"x_min":0,"x_max":0,"o":"m 88 0 l 607 0 l 607 189 l 456 189 l 456 785 l 607 785 l 607 972 l 88 972 l 88 785 l 236 785 l 236 189 l 88 189 z "},"Ⅱ":{"ha":1099,"x_min":0,"x_max":0,"o":"m 88 0 l 1011 0 l 1011 189 l 861 189 l 861 785 l 1011 785 l 1011 972 l 88 972 l 88 785 l 236 785 l 236 189 l 88 189 z m 456 189 l 456 785 l 642 785 l 642 189 z "},"Ⅲ":{"ha":1504,"x_min":0,"x_max":0,"o":"m 88 0 l 1417 0 l 1417 189 l 1267 189 l 1267 785 l 1417 785 l 1417 972 l 88 972 l 88 785 l 236 785 l 236 189 l 88 189 z m 456 189 l 456 785 l 642 785 l 642 189 z m 861 189 l 861 785 l 1047 785 l 1047 189 z "},"Ⅳ":{"ha":1619,"x_min":0,"x_max":0,"o":"m 88 0 l 1533 0 l 1533 189 l 1179 189 l 1393 785 l 1533 785 l 1533 972 l 88 972 l 88 785 l 238 785 l 238 189 l 88 189 z m 457 189 l 457 785 l 619 785 l 833 189 z m 838 785 l 1175 785 l 1006 264 z "},"Ⅴ":{"ha":1250,"x_min":0,"x_max":0,"o":"m 122 0 l 1129 0 l 1129 189 l 801 189 l 1015 785 l 1164 785 l 1164 972 l 88 972 l 88 785 l 242 785 l 456 189 l 122 189 z m 460 785 l 797 785 l 628 264 z "},"Ⅵ":{"ha":1619,"x_min":0,"x_max":0,"o":"m 1533 0 l 1533 189 l 1383 189 l 1383 785 l 1533 785 l 1533 972 l 88 972 l 88 785 l 246 785 l 460 189 l 88 189 l 88 0 z m 464 785 l 801 785 l 632 264 z m 806 189 l 1019 785 l 1164 785 l 1164 189 z "},"Ⅶ":{"ha":2025,"x_min":0,"x_max":0,"o":"m 1938 0 l 1938 189 l 1788 189 l 1788 785 l 1938 785 l 1938 972 l 88 972 l 88 785 l 246 785 l 460 189 l 88 189 l 88 0 z m 464 785 l 801 785 l 632 264 z m 806 189 l 1019 785 l 1163 785 l 1163 189 z m 1382 189 l 1382 785 l 1568 785 l 1568 189 z "},"Ⅷ":{"ha":2431,"x_min":0,"x_max":0,"o":"m 2343 0 l 2343 189 l 2194 189 l 2194 0 z m 88 0 l 2193 0 l 2193 972 l 88 972 l 88 785 l 246 785 l 460 189 l 88 189 z m 464 785 l 801 785 l 632 264 z m 806 189 l 1019 785 l 1163 785 l 1163 189 z m 1382 189 l 1382 785 l 1568 785 l 1568 189 z m 1788 189 l 1788 785 l 1974 785 l 1974 189 z m 2194 785 l 2343 785 l 2343 972 l 2194 972 z "},"Ⅸ":{"ha":1594,"x_min":0,"x_max":0,"o":"m 88 0 l 1507 0 l 1507 189 l 1367 189 l 1128 486 l 1368 785 l 1507 785 l 1507 972 l 88 972 l 88 785 l 236 785 l 236 189 l 88 189 z m 456 189 l 456 785 l 624 785 l 864 486 l 625 189 z m 888 785 l 1104 785 l 996 650 z m 889 189 l 996 322 l 1103 189 z "},"Ⅹ":{"ha":1197,"x_min":0,"x_max":0,"o":"m 88 0 l 1110 0 l 1110 189 l 969 189 l 731 486 l 971 785 l 1110 785 l 1110 972 l 88 972 l 88 785 l 226 785 l 467 486 l 228 189 l 88 189 z m 490 785 l 707 785 l 599 650 z m 492 189 l 599 322 l 706 189 z "},"Ⅺ":{"ha":1571,"x_min":0,"x_max":0,"o":"m 88 0 l 1483 0 l 1483 189 l 1335 189 l 1335 785 l 1483 785 l 1483 972 l 88 972 l 88 785 l 226 785 l 467 486 l 228 189 l 88 189 z m 490 785 l 707 785 l 599 650 z m 492 189 l 599 322 l 706 189 z m 731 486 l 971 785 l 1115 785 l 1115 189 l 969 189 z "},"Ⅻ":{"ha":1968,"x_min":0,"x_max":0,"o":"m 88 0 l 1881 0 l 1881 189 l 1732 189 l 1732 785 l 1881 785 l 1881 972 l 88 972 l 88 785 l 226 785 l 467 486 l 228 189 l 88 189 z m 490 785 l 707 785 l 599 650 z m 492 189 l 599 322 l 706 189 z m 731 486 l 971 785 l 1115 785 l 1115 189 l 969 189 z m 1335 189 l 1335 785 l 1513 785 l 1513 189 z "},"Ⅼ":{"ha":910,"x_min":0,"x_max":0,"o":"m 88 785 l 238 785 l 238 189 l 88 189 l 88 0 l 893 0 l 893 175 l 894 175 l 893 338 l 706 338 l 706 189 l 457 189 l 457 785 l 607 785 l 607 972 l 88 972 z "},"Ⅽ":{"ha":1025,"x_min":0,"x_max":0,"o":"m 535 -11 b 785 79 631 -11 717 21 l 785 0 l 974 0 l 972 297 l 751 347 b 533 178 729 243 647 178 b 267 486 385 178 267 283 b 533 796 267 689 386 796 b 757 606 646 796 735 722 l 975 651 l 975 972 l 788 972 l 788 885 b 535 983 721 949 635 983 b 46 486 275 983 46 814 b 535 -11 46 158 271 -11 z "},"Ⅾ":{"ha":1117,"x_min":0,"x_max":0,"o":"m 88 785 l 236 785 l 236 189 l 88 189 l 88 0 l 568 0 b 1072 486 835 0 1072 153 b 568 972 1072 819 835 972 l 88 972 z m 451 189 l 451 785 l 544 785 b 851 486 701 785 851 711 b 544 189 851 261 701 189 z "},"Ⅿ":{"ha":1519,"x_min":0,"x_max":0,"o":"m 88 785 l 236 785 l 236 189 l 88 189 l 88 0 l 440 0 l 440 565 l 681 0 l 840 0 l 1079 565 l 1079 0 l 1432 0 l 1432 189 l 1283 189 l 1283 785 l 1432 785 l 1432 972 l 1042 972 l 760 311 l 478 972 l 88 972 z "},"①":{"ha":1086,"x_min":0,"x_max":0,"o":"m 543 -11 b 1042 486 829 -11 1042 200 b 543 983 1042 772 829 983 b 46 486 257 983 46 772 b 543 -11 46 200 257 -11 z m 153 486 b 543 879 153 711 318 879 b 933 486 767 879 933 711 b 543 93 933 261 767 93 b 153 486 318 93 153 261 z m 386 565 b 506 618 432 574 469 594 l 506 232 l 638 232 l 638 767 l 531 767 b 386 692 489 735 433 703 z "},"②":{"ha":1086,"x_min":0,"x_max":0,"o":"m 543 -11 b 1042 486 829 -11 1042 200 b 543 983 1042 772 829 983 b 46 486 257 983 46 772 b 543 -11 46 200 257 -11 z m 153 486 b 543 879 153 711 318 879 b 933 486 767 879 933 711 b 543 93 933 261 767 93 b 153 486 318 93 153 261 z m 346 561 l 482 553 b 544 650 476 613 501 650 b 606 594 581 650 606 628 b 513 474 606 558 569 519 l 351 342 l 353 232 l 749 232 l 749 354 l 553 354 l 614 396 b 749 594 708 461 749 525 b 544 772 749 697 665 772 b 346 561 429 772 333 678 z "},"③":{"ha":1086,"x_min":0,"x_max":0,"o":"m 543 -11 b 1042 486 829 -11 1042 200 b 543 983 1042 772 829 983 b 46 486 257 983 46 772 b 543 -11 46 200 257 -11 z m 153 486 b 543 879 153 711 318 879 b 933 486 767 879 933 711 b 543 93 933 261 767 93 b 153 486 318 93 153 261 z m 335 388 b 544 226 344 290 429 226 b 758 407 672 226 758 297 b 600 561 758 503 694 560 l 718 644 l 718 767 l 350 767 l 350 644 l 549 644 l 431 550 l 485 456 b 547 475 503 469 529 475 b 617 411 589 475 617 449 b 546 349 617 372 588 349 b 463 408 507 349 474 372 z "},"④":{"ha":1086,"x_min":0,"x_max":0,"o":"m 543 -11 b 1042 486 829 -11 1042 200 b 543 983 1042 772 829 983 b 46 486 257 983 46 772 b 543 -11 46 200 257 -11 z m 153 486 b 543 879 153 711 318 879 b 933 486 767 879 933 711 b 543 93 933 261 767 93 b 153 486 318 93 153 261 z m 281 321 l 539 321 l 539 232 l 683 232 l 683 321 l 740 321 l 740 443 l 683 443 l 683 767 l 533 767 l 281 443 z m 425 443 l 539 590 l 539 443 z "},"⑤":{"ha":1086,"x_min":0,"x_max":0,"o":"m 543 -11 b 1042 486 829 -11 1042 200 b 543 983 1042 772 829 983 b 46 486 257 983 46 772 b 543 -11 46 200 257 -11 z m 153 486 b 543 879 153 711 318 879 b 933 486 767 879 933 711 b 543 93 933 261 767 93 b 153 486 318 93 153 261 z m 343 376 b 546 226 358 285 439 226 b 750 414 669 226 750 300 b 579 586 750 517 678 586 b 485 553 536 586 510 576 l 501 644 l 707 644 l 707 767 l 400 767 l 354 458 l 457 438 b 536 478 481 467 504 478 b 608 414 579 478 608 453 b 542 349 608 375 581 349 b 471 399 506 349 481 367 z "},"⑥":{"ha":1086,"x_min":0,"x_max":0,"o":"m 543 -11 b 1042 486 829 -11 1042 200 b 543 983 1042 772 829 983 b 46 486 257 983 46 772 b 543 -11 46 200 257 -11 z m 153 486 b 543 879 153 711 318 879 b 933 486 767 879 933 711 b 543 93 933 261 767 93 b 153 486 318 93 153 261 z m 318 463 b 536 226 318 335 410 226 b 744 411 653 226 744 306 b 560 593 744 517 667 593 b 454 551 515 593 479 581 b 583 651 465 611 511 651 b 683 622 626 651 663 640 l 744 713 b 578 772 700 751 640 772 b 318 463 453 772 318 683 z m 465 419 b 536 489 465 460 496 489 b 607 419 578 489 608 461 b 536 349 606 378 578 349 b 465 419 496 349 465 379 z "},"⑦":{"ha":1086,"x_min":0,"x_max":0,"o":"m 543 -11 b 1042 486 829 -11 1042 200 b 543 983 1042 772 829 983 b 46 486 257 983 46 772 b 543 -11 46 200 257 -11 z m 153 486 b 543 879 153 711 318 879 b 933 486 767 879 933 711 b 543 93 933 261 767 93 b 153 486 318 93 153 261 z m 343 644 l 603 644 b 399 232 494 500 436 354 l 536 232 b 743 644 564 333 626 479 l 743 767 l 343 767 z "},"⑧":{"ha":1086,"x_min":0,"x_max":0,"o":"m 543 -11 b 1042 486 829 -11 1042 200 b 543 983 1042 772 829 983 b 46 486 257 983 46 772 b 543 -11 46 200 257 -11 z m 153 486 b 543 879 153 711 318 879 b 933 486 767 879 933 711 b 543 93 933 261 767 93 b 153 486 318 93 153 261 z m 340 393 b 544 226 340 288 438 226 b 747 393 653 226 747 288 b 657 519 747 451 713 501 b 724 626 697 538 724 579 b 544 772 724 704 651 772 b 365 626 439 772 365 704 b 432 519 365 581 392 539 b 340 393 376 501 340 450 z m 479 396 b 544 453 479 429 506 453 b 610 396 585 453 610 429 b 544 339 610 363 585 339 b 479 396 506 339 479 363 z m 492 619 b 544 668 492 650 511 668 b 599 619 575 668 599 649 b 544 574 599 590 576 574 b 492 619 511 574 492 590 z "},"⑨":{"ha":1086,"x_min":0,"x_max":0,"o":"m 543 -11 b 1042 486 829 -11 1042 200 b 543 983 1042 772 829 983 b 46 486 257 983 46 772 b 543 -11 46 200 257 -11 z m 153 486 b 543 879 153 711 318 879 b 933 486 767 879 933 711 b 543 93 933 261 767 93 b 153 486 318 93 153 261 z m 342 286 b 508 226 386 247 446 226 b 768 536 633 226 768 315 b 550 772 768 664 676 772 b 342 588 433 772 342 693 b 526 406 342 482 419 406 b 632 447 571 406 607 418 b 503 347 621 388 575 347 b 403 376 460 347 424 358 z m 479 579 b 550 650 481 621 508 650 b 621 579 590 650 621 619 b 550 510 621 539 590 510 b 479 579 508 510 478 538 z "},"⁄":{"ha":394,"x_min":0,"x_max":0,"o":"m -208 0 l -47 0 l 603 972 l 442 972 z "},"½":{"ha":1117,"x_min":0,"x_max":0,"o":"m 150 824 l 150 438 l 282 438 l 282 972 l 175 972 b 31 897 133 940 78 908 l 31 771 b 150 824 76 779 114 800 z m 104 0 l 265 0 l 915 972 l 754 972 z m 674 329 l 810 321 b 872 418 804 381 829 418 b 933 363 908 418 933 396 b 840 242 933 326 897 288 l 679 110 l 681 0 l 1076 0 l 1076 122 l 881 122 l 942 164 b 1076 363 1036 229 1076 293 b 872 540 1076 465 993 540 b 674 329 757 540 661 446 z "},"¼":{"ha":1079,"x_min":0,"x_max":0,"o":"m 850 0 l 994 0 l 994 89 l 1051 89 l 1051 211 l 994 211 l 994 535 l 844 535 l 592 211 l 592 89 l 850 89 z m 31 771 b 150 824 76 779 114 800 l 150 438 l 282 438 l 282 972 l 175 972 b 31 897 133 940 78 908 z m 122 0 l 283 0 l 933 972 l 772 972 z m 736 211 l 850 358 l 850 211 z "},"¾":{"ha":1165,"x_min":0,"x_max":0,"o":"m 240 432 b 454 613 368 432 454 503 b 296 767 454 708 390 765 l 414 850 l 414 972 l 46 972 l 46 850 l 244 850 l 126 756 l 181 661 b 243 681 199 675 225 681 b 313 617 285 681 313 654 b 242 554 313 578 283 554 b 158 614 203 554 169 578 l 31 593 b 240 432 40 496 125 432 z m 207 0 l 368 0 l 1018 972 l 857 972 z m 678 89 l 936 89 l 936 0 l 1081 0 l 1081 89 l 1138 89 l 1138 211 l 1081 211 l 1081 535 l 931 535 l 678 211 z m 822 211 l 936 358 l 936 211 z "},"⅛":{"ha":1126,"x_min":0,"x_max":0,"o":"m 885 -6 b 1088 161 994 -6 1088 56 b 997 288 1088 219 1053 269 b 1064 394 1038 306 1064 347 b 885 540 1064 472 992 540 b 706 394 781 540 706 472 b 772 288 706 349 732 307 b 681 161 717 269 681 218 b 885 -6 681 56 778 -6 z m 31 771 b 150 824 76 779 114 800 l 150 438 l 282 438 l 282 972 l 175 972 b 31 897 133 940 78 908 z m 131 0 l 292 0 l 942 972 l 781 972 z m 819 164 b 885 221 819 197 846 221 b 950 164 925 221 950 197 b 885 107 950 131 925 107 b 819 164 846 107 819 131 z m 832 388 b 885 436 832 417 853 436 b 939 388 917 436 939 417 b 885 340 939 360 917 340 b 832 388 853 340 832 360 z "},"⅜":{"ha":1224,"x_min":0,"x_max":0,"o":"m 240 432 b 454 613 368 432 454 503 b 296 767 454 708 390 765 l 414 850 l 414 972 l 46 972 l 46 850 l 244 850 l 126 756 l 181 661 b 243 681 199 675 225 681 b 313 617 285 681 313 654 b 242 554 313 578 283 554 b 158 614 203 554 169 578 l 31 593 b 240 432 40 496 125 432 z m 204 0 l 365 0 l 1015 972 l 854 972 z m 778 161 b 982 -6 778 56 875 -6 b 1185 161 1092 -6 1185 56 b 1094 288 1185 219 1150 269 b 1161 394 1135 306 1161 347 b 982 540 1161 472 1089 540 b 803 394 878 540 803 472 b 869 288 803 349 829 307 b 778 161 814 269 778 218 z m 917 164 b 982 221 917 197 943 221 b 1047 164 1022 221 1047 197 b 982 107 1047 131 1022 107 b 917 164 943 107 917 131 z m 929 388 b 982 436 929 417 950 436 b 1036 388 1014 436 1036 417 b 982 340 1036 360 1014 340 b 929 388 950 340 929 360 z "},"⅝":{"ha":1224,"x_min":0,"x_max":0,"o":"m 239 432 b 443 619 363 432 443 506 b 272 792 443 722 371 792 b 178 758 229 792 203 782 l 194 850 l 400 850 l 400 972 l 93 972 l 47 664 l 150 643 b 229 683 174 672 197 683 b 301 619 272 683 301 658 b 235 554 301 581 274 554 b 164 604 199 554 174 572 l 36 582 b 239 432 51 490 132 432 z m 207 0 l 368 0 l 1018 972 l 857 972 z m 778 161 b 982 -6 778 56 875 -6 b 1185 161 1092 -6 1185 56 b 1094 288 1185 219 1150 269 b 1161 394 1135 306 1161 347 b 982 540 1161 472 1089 540 b 803 394 878 540 803 472 b 869 288 803 349 829 307 b 778 161 814 269 778 218 z m 917 164 b 982 221 917 197 943 221 b 1047 164 1022 221 1047 197 b 982 107 1047 131 1022 107 b 917 164 943 107 917 131 z m 929 388 b 982 436 929 417 950 436 b 1036 388 1014 436 1036 417 b 982 340 1036 360 1014 340 b 929 388 950 340 929 360 z "},"⅞":{"ha":1113,"x_min":0,"x_max":0,"o":"m 79 438 l 217 438 b 424 850 244 539 307 685 l 424 972 l 24 972 l 24 850 l 283 850 b 79 438 175 706 117 560 z m 93 0 l 254 0 l 904 972 l 743 972 z m 667 161 b 871 -6 667 56 764 -6 b 1074 161 981 -6 1074 56 b 983 288 1074 219 1039 269 b 1050 394 1024 306 1050 347 b 871 540 1050 472 978 540 b 692 394 767 540 692 472 b 758 288 692 349 718 307 b 667 161 703 269 667 218 z m 806 164 b 871 221 806 197 832 221 b 936 164 911 221 936 197 b 871 107 936 131 911 107 b 806 164 832 107 806 131 z m 818 388 b 871 436 818 417 839 436 b 925 388 903 436 925 417 b 871 340 925 360 903 340 b 818 388 839 340 818 360 z "},"¹":{"ha":331,"x_min":0,"x_max":0,"o":"m 150 907 l 150 521 l 282 521 l 282 1056 l 175 1056 b 31 981 133 1024 78 992 l 31 854 b 150 907 76 863 114 883 z "},"²":{"ha":476,"x_min":0,"x_max":0,"o":"m 40 521 l 436 521 l 436 643 l 240 643 l 301 685 b 436 883 396 750 436 814 b 232 1061 436 986 353 1061 b 33 850 117 1061 21 967 l 169 842 b 232 939 164 901 189 939 b 293 883 268 939 293 917 b 200 763 293 847 257 808 l 39 631 z "},"³":{"ha":488,"x_min":0,"x_max":0,"o":"m 240 515 b 454 696 368 515 454 586 b 296 850 454 792 390 849 l 414 933 l 414 1056 l 46 1056 l 46 933 l 244 933 l 126 839 l 181 744 b 243 764 199 758 225 764 b 313 700 285 764 313 738 b 242 638 313 661 283 638 b 158 697 203 638 169 661 l 31 676 b 240 515 40 579 125 515 z "}," ":{"ha":332,"x_min":0,"x_max":0,"o":""},".":{"ha":369,"x_min":0,"x_max":0,"o":"m 79 203 l 79 0 l 289 0 l 289 203 z "},",":{"ha":447,"x_min":0,"x_max":0,"o":"m 31 -186 l 163 -186 l 361 203 l 126 203 z "},":":{"ha":369,"x_min":0,"x_max":0,"o":"m 79 700 l 79 497 l 289 497 l 289 700 z m 79 0 l 289 0 l 289 203 l 79 203 z "},";":{"ha":447,"x_min":0,"x_max":0,"o":"m 19 -186 l 151 -186 l 350 203 l 115 203 z m 138 508 l 347 508 l 347 711 l 138 711 z "},"…":{"ha":1108,"x_min":0,"x_max":0,"o":"m 79 203 l 79 0 l 289 0 l 289 203 z m 449 0 l 658 0 l 658 203 l 449 203 z m 818 0 l 1028 0 l 1028 203 l 818 203 z "},"!":{"ha":421,"x_min":0,"x_max":0,"o":"m 131 331 l 292 331 l 333 972 l 88 972 z m 104 0 l 314 0 l 314 203 l 104 203 z "},"¡":{"ha":421,"x_min":0,"x_max":0,"o":"m 131 358 l 88 -283 l 333 -283 l 292 358 z m 104 486 l 314 486 l 314 689 l 104 689 z "},"?":{"ha":744,"x_min":0,"x_max":0,"o":"m 236 314 l 429 314 b 700 697 419 468 700 447 b 365 983 700 872 567 983 b 39 663 157 983 26 856 l 232 646 b 365 811 218 746 272 811 b 492 697 440 811 492 765 b 236 314 492 538 211 556 z m 231 0 l 440 0 l 440 203 l 231 203 z "},"¿":{"ha":654,"x_min":0,"x_max":0,"o":"m 440 375 l 247 375 b -24 -8 257 221 -24 242 b 311 -294 -24 -183 110 -294 b 638 26 519 -294 650 -167 l 444 43 b 311 -122 458 -57 404 -122 b 185 -8 236 -122 185 -76 b 440 375 185 151 465 133 z m 236 486 l 446 486 l 446 689 l 236 689 z "},"·":{"ha":399,"x_min":0,"x_max":0,"o":"m 79 610 l 79 407 l 289 407 l 289 610 z "},"•":{"ha":646,"x_min":0,"x_max":0,"o":"m 326 100 b 601 378 478 100 601 224 b 326 656 601 531 478 656 b 46 378 169 656 46 531 b 326 100 46 224 169 100 z "},"*":{"ha":675,"x_min":0,"x_max":0,"o":"m 636 696 l 593 842 l 411 783 l 414 972 l 261 972 l 264 783 l 82 842 l 39 696 l 215 644 l 101 496 l 222 407 l 338 563 l 451 407 l 572 496 l 458 644 z "},"#":{"ha":972,"x_min":0,"x_max":0,"o":"m 471 0 l 624 0 l 681 263 l 874 263 l 874 410 l 713 410 l 744 563 l 931 563 l 931 710 l 776 710 l 833 972 l 681 972 l 624 710 l 454 710 l 511 972 l 358 972 l 301 710 l 100 710 l 100 563 l 269 563 l 238 410 l 42 410 l 42 263 l 206 263 l 149 0 l 301 0 l 358 263 l 528 263 z m 390 410 l 422 563 l 592 563 l 560 410 z "},"/":{"ha":663,"x_min":0,"x_max":0,"o":"m 7 -1 l 218 -1 l 656 972 l 443 972 z "},"\\":{"ha":663,"x_min":0,"x_max":0,"o":"m 656 -1 l 219 972 l 7 972 l 444 -1 z "},"-":{"ha":539,"x_min":0,"x_max":0,"o":"m 36 315 l 503 315 l 503 489 l 36 489 z "},"­":{"ha":539,"x_min":0,"x_max":0,"o":"m 36 315 l 503 315 l 503 489 l 36 489 z "},"–":{"ha":694,"x_min":0,"x_max":0,"o":"m 29 315 l 665 315 l 665 489 l 29 489 z "},"—":{"ha":1389,"x_min":0,"x_max":0,"o":"m 29 315 l 1360 315 l 1360 489 l 29 489 z "},"_":{"ha":694,"x_min":0,"x_max":0,"o":"m 29 -174 l 665 -174 l 665 0 l 29 0 z "},"(":{"ha":419,"x_min":0,"x_max":0,"o":"m 269 -260 l 407 -156 b 213 429 276 24 213 214 b 407 1011 213 640 276 833 l 269 1114 b 22 429 107 925 22 694 b 269 -260 22 163 107 -68 z "},")":{"ha":419,"x_min":0,"x_max":0,"o":"m 13 -156 l 150 -260 b 397 429 313 -68 397 163 b 150 1114 397 694 313 925 l 13 1011 b 207 429 143 833 207 640 b 13 -156 207 214 143 24 z "},"{":{"ha":483,"x_min":0,"x_max":0,"o":"m 365 -221 l 458 -221 l 458 -53 l 433 -53 b 358 25 383 -53 358 -24 l 358 307 b 242 463 358 404 307 438 b 358 617 307 488 358 522 l 358 899 b 433 978 358 949 383 978 l 458 978 l 458 1144 l 365 1144 b 176 953 256 1144 176 1064 l 176 661 b 57 549 176 581 135 550 l 57 375 b 176 263 135 375 176 344 l 176 -29 b 365 -221 176 -139 256 -221 z "},"}":{"ha":483,"x_min":0,"x_max":0,"o":"m 118 -221 b 307 -29 228 -221 307 -139 l 307 263 b 426 375 307 344 349 375 l 426 549 b 307 661 349 550 307 581 l 307 953 b 118 1144 307 1064 228 1144 l 25 1144 l 25 978 l 50 978 b 125 899 100 978 125 949 l 125 617 b 242 463 125 522 176 488 b 125 307 176 438 125 404 l 125 25 b 50 -53 125 -24 100 -53 l 25 -53 l 25 -221 z "},"[":{"ha":451,"x_min":0,"x_max":0,"o":"m 88 -229 l 419 -229 l 419 -65 l 268 -65 l 268 972 l 419 972 l 419 1138 l 88 1138 z "},"]":{"ha":451,"x_min":0,"x_max":0,"o":"m 364 -229 l 364 1138 l 32 1138 l 32 972 l 183 972 l 183 -65 l 32 -65 l 32 -229 z "},"‚":{"ha":390,"x_min":0,"x_max":0,"o":"m 28 -169 l 157 -169 l 346 203 l 118 203 z "},"„":{"ha":681,"x_min":0,"x_max":0,"o":"m 318 -169 l 447 -169 l 636 203 l 408 203 z m 28 -169 l 157 -169 l 346 203 l 118 203 z "},"“":{"ha":681,"x_min":0,"x_max":0,"o":"m 363 983 l 233 983 l 44 611 l 272 611 z m 335 611 l 563 611 l 653 983 l 524 983 z "},"”":{"ha":681,"x_min":0,"x_max":0,"o":"m 318 611 l 447 611 l 636 983 l 408 983 z m 28 611 l 157 611 l 346 983 l 118 983 z "},"‘":{"ha":390,"x_min":0,"x_max":0,"o":"m 363 983 l 233 983 l 44 611 l 272 611 z "},"’":{"ha":390,"x_min":0,"x_max":0,"o":"m 28 611 l 157 611 l 346 983 l 118 983 z "},"«":{"ha":890,"x_min":0,"x_max":0,"o":"m 454 60 l 454 263 l 232 428 l 454 593 l 454 796 l 47 486 l 47 369 z m 431 369 l 838 60 l 838 263 l 615 428 l 838 593 l 838 796 l 431 486 z "},"»":{"ha":921,"x_min":0,"x_max":0,"o":"m 53 60 l 460 369 l 460 486 l 53 796 l 53 593 l 275 428 l 53 263 z m 467 60 l 874 369 l 874 486 l 467 796 l 467 593 l 689 428 l 467 263 z "},"‹":{"ha":507,"x_min":0,"x_max":0,"o":"m 454 60 l 454 263 l 232 428 l 454 593 l 454 796 l 47 486 l 47 369 z "},"›":{"ha":507,"x_min":0,"x_max":0,"o":"m 53 60 l 460 369 l 460 486 l 53 796 l 53 593 l 275 428 l 53 263 z "},"\"":{"ha":628,"x_min":0,"x_max":0,"o":"m 107 610 l 232 610 l 276 983 l 61 983 z m 351 983 l 397 610 l 522 610 l 567 983 z "},"'":{"ha":338,"x_min":0,"x_max":0,"o":"m 107 610 l 232 610 l 276 983 l 61 983 z "},"ƒ":{"ha":678,"x_min":0,"x_max":0,"o":"m 639 700 l 468 700 l 474 740 b 569 843 485 808 515 843 b 638 828 592 843 614 838 l 653 992 b 542 1010 618 1004 581 1010 b 275 749 390 1010 300 918 l 268 700 l 121 700 l 121 542 l 244 542 l 204 260 b 108 156 193 190 163 156 b 40 171 86 156 64 161 l 25 7 b 136 -11 60 -6 97 -11 b 403 250 288 -11 378 81 l 444 542 l 639 542 z "},"฿":{"ha":886,"x_min":0,"x_max":0,"o":"m 328 -139 l 503 -139 l 503 0 b 843 290 703 3 843 108 b 681 531 843 417 768 496 b 793 722 736 561 793 631 b 503 972 793 879 668 965 l 503 1111 l 328 1111 l 328 972 l 88 972 l 88 0 l 328 0 z m 307 189 l 307 421 l 475 421 b 636 303 588 421 636 379 b 475 189 636 228 588 189 z m 307 604 l 307 800 l 461 800 b 592 701 553 800 592 763 b 465 604 592 642 553 604 z "},"":{"ha":1086,"x_min":0,"x_max":0,"o":"m 850 369 l 732 369 l 732 601 l 850 601 b 1040 793 953 601 1040 689 b 850 983 1040 897 954 983 b 658 793 746 983 658 896 l 658 675 l 426 675 l 426 793 b 235 983 426 896 339 983 b 46 793 132 983 46 897 b 235 601 46 688 132 601 l 353 601 l 353 369 l 235 369 b 46 178 132 369 46 283 b 235 -11 46 74 131 -11 b 426 178 340 -11 426 75 l 426 296 l 658 296 l 658 178 b 850 -11 658 75 744 -11 b 1040 178 954 -11 1040 75 b 850 369 1040 282 953 369 z m 119 178 b 235 296 119 243 171 296 l 353 296 l 353 178 b 235 63 353 114 300 63 b 119 178 171 63 119 114 z m 119 793 b 235 910 119 857 171 910 b 353 793 300 910 353 857 l 353 675 l 235 675 b 119 793 171 675 119 728 z m 426 369 l 426 601 l 658 601 l 658 369 z m 732 178 l 732 296 l 850 296 b 967 178 914 296 967 243 b 850 63 967 114 914 63 b 732 178 785 63 732 114 z m 732 675 l 732 793 b 850 910 732 857 785 910 b 967 793 914 910 967 857 b 850 675 967 728 914 675 z "},"@":{"ha":1271,"x_min":0,"x_max":0,"o":"m 747 647 l 747 599 b 601 656 715 633 665 656 b 351 379 451 656 351 547 b 608 103 351 208 453 103 b 779 183 688 103 747 133 b 951 96 810 126 871 96 b 1225 443 1111 96 1225 224 b 660 957 1225 738 985 957 b 51 379 311 957 51 711 b 646 -211 51 38 301 -211 b 1065 -117 799 -211 921 -181 l 1010 43 b 657 -56 893 -21 782 -56 b 214 379 393 -56 214 121 b 660 800 214 628 397 800 b 1063 443 893 800 1063 667 b 963 249 1063 319 1019 249 b 903 311 929 249 903 268 l 903 647 z m 504 379 b 631 524 504 467 554 524 b 756 379 706 524 756 467 b 631 236 756 293 706 236 b 504 379 556 236 504 293 z "},"&":{"ha":960,"x_min":0,"x_max":0,"o":"m 382 -11 b 636 68 475 -11 561 19 l 694 0 l 950 0 l 779 197 l 910 346 l 760 485 l 640 356 l 522 492 b 669 733 601 544 669 615 b 415 983 669 886 571 983 b 157 733 257 983 157 886 b 238 540 157 672 182 613 b 64 288 146 489 64 419 b 382 -11 64 107 188 -11 z m 268 288 b 357 397 268 333 306 365 l 507 221 b 399 175 471 193 436 175 b 268 288 319 175 268 219 z m 340 733 b 415 808 340 778 371 808 b 489 733 458 808 489 779 b 406 625 489 686 454 654 b 340 733 374 663 340 703 z "},"¶":{"ha":1035,"x_min":0,"x_max":0,"o":"m 383 333 l 383 -253 l 560 -253 l 560 797 l 708 797 l 708 -253 l 886 -253 l 886 797 l 976 797 l 976 972 l 383 972 b 53 653 200 972 53 829 b 383 333 53 476 200 333 z "},"§":{"ha":826,"x_min":0,"x_max":0,"o":"m 418 -264 b 767 10 622 -264 767 -154 b 699 182 767 90 739 144 b 767 332 740 219 767 268 b 286 729 767 669 286 551 b 415 814 286 779 339 814 b 574 694 499 814 561 765 l 749 733 b 415 983 731 896 575 983 b 101 726 236 983 101 875 b 175 543 101 642 131 583 b 101 403 132 507 101 465 b 574 10 101 64 574 168 b 418 -90 574 -51 511 -90 b 231 74 321 -90 244 -25 l 60 25 b 418 -264 82 -135 233 -264 z m 286 407 b 318 468 286 428 297 449 b 574 332 443 426 574 417 b 539 264 574 307 561 283 b 286 407 414 301 286 314 z "},"©":{"ha":1086,"x_min":0,"x_max":0,"o":"m 550 229 b 789 403 675 229 764 294 l 658 431 b 549 340 650 375 608 340 b 415 492 467 340 415 399 b 549 643 415 585 468 643 b 661 544 610 643 653 606 l 789 571 b 550 757 778 683 682 757 b 286 492 393 757 286 649 b 550 229 286 333 392 229 z m 46 486 b 543 -11 46 200 257 -11 b 1042 486 829 -11 1042 200 b 543 983 1042 772 829 983 b 46 486 257 983 46 772 z m 153 486 b 543 879 153 711 318 879 b 933 486 767 879 933 711 b 543 93 933 261 767 93 b 153 486 318 93 153 261 z "},"®":{"ha":1086,"x_min":0,"x_max":0,"o":"m 781 251 l 651 472 b 724 600 697 499 724 546 b 558 754 724 693 658 754 l 358 754 l 360 251 l 474 251 l 474 447 l 536 447 l 646 251 z m 46 486 b 543 -11 46 200 257 -11 b 1042 486 829 -11 1042 200 b 543 983 1042 772 829 983 b 46 486 257 983 46 772 z m 153 486 b 543 879 153 711 318 879 b 933 486 767 879 933 711 b 543 93 933 261 767 93 b 153 486 318 93 153 261 z m 474 546 l 474 654 l 540 654 b 608 600 583 654 608 635 b 540 546 608 567 583 546 z "},"℗":{"ha":1086,"x_min":0,"x_max":0,"o":"m 581 435 b 751 593 679 435 751 499 b 581 754 751 689 679 754 l 386 754 l 388 251 l 501 251 l 501 435 z m 46 486 b 543 -11 46 200 257 -11 b 1042 486 829 -11 1042 200 b 543 983 1042 772 829 983 b 46 486 257 983 46 772 z m 153 486 b 543 879 153 711 318 879 b 933 486 767 879 933 711 b 543 93 933 261 767 93 b 153 486 318 93 153 261 z m 501 535 l 501 654 l 568 654 b 636 593 611 654 636 632 b 568 535 636 557 611 535 z "},"™":{"ha":1043,"x_min":0,"x_max":0,"o":"m 144 486 l 275 486 l 275 863 l 413 863 l 413 972 l 7 972 l 7 863 l 144 863 z m 458 486 l 576 486 l 576 732 l 685 486 l 775 486 l 883 732 l 883 486 l 1000 486 l 1000 972 l 861 972 l 729 668 l 599 972 l 458 972 z "},"°":{"ha":499,"x_min":0,"x_max":0,"o":"m 249 594 b 454 793 365 594 454 681 b 249 990 454 906 365 992 b 46 793 133 992 46 906 b 249 594 46 681 133 594 z m 174 793 b 249 872 174 839 204 872 b 325 793 293 872 325 839 b 249 714 325 746 293 714 b 174 793 204 714 174 746 z "},"|":{"ha":397,"x_min":0,"x_max":0,"o":"m 89 -69 l 308 -69 l 308 1042 l 89 1042 z "},"¦":{"ha":397,"x_min":0,"x_max":0,"o":"m 89 557 l 308 557 l 308 1042 l 89 1042 z m 89 -69 l 308 -69 l 308 415 l 89 415 z "},"†":{"ha":539,"x_min":0,"x_max":0,"o":"m 178 258 l 363 258 l 363 638 l 529 638 l 529 782 l 363 782 l 363 972 l 178 972 l 178 782 l 10 782 l 10 638 l 178 638 z "},"‡":{"ha":539,"x_min":0,"x_max":0,"o":"m 10 190 l 178 190 l 178 0 l 363 0 l 363 190 l 529 190 l 529 335 l 363 335 l 363 638 l 529 638 l 529 782 l 363 782 l 363 972 l 178 972 l 178 782 l 10 782 l 10 638 l 178 638 l 178 335 l 10 335 z "},"№":{"ha":1732,"x_min":0,"x_max":0,"o":"m 88 0 l 292 0 l 292 625 l 669 0 l 888 0 l 888 972 l 683 972 l 683 347 l 306 972 l 88 972 z m 947 625 b 1317 264 947 417 1100 264 b 1686 625 1531 264 1686 417 b 1317 986 1686 833 1531 986 b 947 625 1100 986 947 833 z m 1000 11 l 1636 11 l 1636 185 l 1000 185 z m 1150 625 b 1317 813 1150 736 1217 813 b 1482 625 1415 813 1482 736 b 1317 438 1482 514 1415 438 b 1150 625 1217 438 1150 514 z "},"₦":{"ha":1107,"x_min":0,"x_max":0,"o":"m 25 558 l 154 558 l 154 411 l 25 411 l 25 276 l 154 276 l 154 0 l 358 0 l 358 276 l 569 276 l 736 0 l 954 0 l 954 276 l 1082 276 l 1082 411 l 954 411 l 954 558 l 1082 558 l 1082 693 l 954 693 l 954 972 l 750 972 l 750 693 l 540 693 l 372 972 l 154 972 l 154 693 l 25 693 z m 358 411 l 358 558 l 399 558 l 488 411 z m 622 558 l 750 558 l 750 411 l 711 411 z "},"₿":{"ha":886,"x_min":0,"x_max":0,"o":"m 471 -143 l 646 -143 l 646 24 b 843 290 767 64 843 156 b 681 531 843 417 768 496 b 793 722 736 561 793 631 b 646 942 793 829 735 903 l 646 1111 l 471 1111 l 471 972 l 371 972 l 371 1111 l 197 1111 l 197 972 l 88 972 l 88 0 l 197 0 l 197 -143 l 371 -143 l 371 0 l 471 0 z m 307 189 l 307 421 l 475 421 b 636 303 588 421 636 379 b 475 189 636 228 588 189 z m 307 604 l 307 800 l 461 800 b 592 701 553 800 592 763 b 465 604 592 642 553 604 z "},"¢":{"ha":788,"x_min":0,"x_max":0,"o":"m 325 -142 l 500 -143 l 500 -1 b 742 228 632 25 721 108 l 543 268 b 411 163 529 204 483 163 b 254 350 317 163 254 236 b 411 538 254 464 315 538 b 546 424 483 538 535 493 l 743 463 b 500 701 725 589 635 675 l 500 842 l 325 842 l 325 704 b 44 350 157 672 44 535 b 325 -4 44 165 157 28 z "},"¤":{"ha":907,"x_min":0,"x_max":0,"o":"m 739 -60 l 863 63 l 769 157 b 822 350 803 211 822 278 b 771 542 822 422 804 488 l 863 636 l 740 760 l 644 664 b 451 711 589 694 524 711 b 261 665 381 711 317 694 l 167 760 l 44 636 l 135 544 b 82 350 101 489 82 422 b 135 154 82 276 101 210 l 44 63 l 168 -60 l 263 35 b 451 -11 317 6 381 -11 b 643 36 524 -11 588 6 z m 286 350 b 451 538 286 461 351 538 b 618 350 550 538 618 461 b 451 163 618 239 550 163 b 286 350 351 163 286 239 z "},"$":{"ha":825,"x_min":0,"x_max":0,"o":"m 329 -137 l 504 -139 l 504 -4 b 785 283 675 25 785 133 b 285 711 785 681 285 557 b 408 797 285 765 332 797 b 585 653 500 797 565 740 l 781 735 b 504 974 753 857 646 946 l 504 1111 l 329 1111 l 329 976 b 65 710 178 950 65 847 b 564 278 65 353 564 461 b 419 175 564 217 507 175 b 226 356 324 175 239 247 l 35 299 b 329 -3 50 146 172 28 z "},"€":{"ha":1108,"x_min":0,"x_max":0,"o":"m 43 308 l 169 308 b 631 -11 236 97 422 -11 b 1069 297 861 -11 1024 104 l 847 347 b 631 178 826 243 744 178 b 403 308 533 178 449 219 l 638 308 l 675 442 l 367 442 b 365 486 365 456 365 471 b 368 535 365 503 367 519 l 708 535 l 749 668 l 406 668 b 631 796 451 756 536 796 b 854 606 743 796 832 722 l 1072 651 b 631 983 1044 853 875 983 b 172 668 428 983 240 876 l 43 668 l 43 535 l 146 535 b 144 486 144 519 144 503 b 146 442 144 471 144 456 l 43 442 z "},"₹":{"ha":785,"x_min":0,"x_max":0,"o":"m 424 0 l 671 0 l 471 378 b 606 586 543 421 590 496 l 740 586 l 740 718 l 606 718 b 554 840 597 764 581 806 l 740 840 l 740 972 l 19 972 l 19 785 l 235 785 b 392 651 332 785 392 735 b 235 518 392 568 332 518 l 19 518 l 19 331 l 254 331 z "},"£":{"ha":863,"x_min":0,"x_max":0,"o":"m 100 175 l 100 0 l 594 0 b 843 185 701 0 782 63 l 661 285 b 540 189 635 228 589 189 l 336 189 b 425 397 388 235 425 319 l 425 406 l 665 406 l 665 572 l 360 572 b 332 675 344 603 332 635 b 450 796 332 750 382 796 b 576 690 519 796 565 756 l 778 744 b 450 983 758 889 629 983 b 117 686 246 983 117 867 b 143 572 117 646 128 607 l 44 572 l 44 406 l 207 406 l 207 397 b 100 175 207 306 167 228 z "},"¥":{"ha":881,"x_min":0,"x_max":0,"o":"m 86 401 l 331 401 l 331 307 l 86 307 l 86 175 l 331 175 l 331 0 l 550 0 l 550 175 l 797 175 l 797 307 l 550 307 l 550 401 l 797 401 l 797 533 l 626 533 l 879 972 l 647 972 l 440 607 l 235 972 l 1 972 l 254 533 l 86 533 z "},"+":{"ha":775,"x_min":0,"x_max":0,"o":"m 732 532 l 474 532 l 474 790 l 301 790 l 301 532 l 43 532 l 43 360 l 301 360 l 301 101 l 475 101 l 475 358 l 732 358 z "},"−":{"ha":771,"x_min":0,"x_max":0,"o":"m 43 358 l 728 358 l 728 532 l 43 532 z "},"×":{"ha":813,"x_min":0,"x_max":0,"o":"m 614 99 l 265 447 l 406 588 l 547 447 l 197 99 l 57 239 l 265 447 l 57 654 l 197 794 l 406 588 l 614 794 l 756 654 l 547 447 l 756 239 z "},"÷":{"ha":771,"x_min":0,"x_max":0,"o":"m 43 358 l 728 358 l 728 532 l 43 532 z m 281 29 l 490 29 l 490 232 l 281 232 z m 281 647 l 490 647 l 490 850 l 281 850 z "},"=":{"ha":771,"x_min":0,"x_max":0,"o":"m 43 200 l 728 200 l 728 374 l 43 374 z m 43 515 l 728 515 l 728 689 l 43 689 z "},"≠":{"ha":771,"x_min":0,"x_max":0,"o":"m 236 -4 l 347 200 l 728 200 l 728 374 l 442 374 l 519 515 l 728 515 l 728 689 l 614 689 l 671 793 l 535 861 l 440 689 l 43 689 l 43 515 l 346 515 l 268 374 l 43 374 l 43 200 l 174 200 l 100 65 z "},">":{"ha":771,"x_min":0,"x_max":0,"o":"m 43 28 l 728 319 l 728 488 l 43 778 l 43 571 l 465 403 l 43 236 z "},"<":{"ha":771,"x_min":0,"x_max":0,"o":"m 728 28 l 728 236 l 306 403 l 728 571 l 728 778 l 43 488 l 43 319 z "},"≥":{"ha":793,"x_min":0,"x_max":0,"o":"m 65 375 l 65 0 l 750 0 l 750 174 l 82 174 l 750 458 l 750 626 l 65 917 l 65 710 l 488 542 z "},"≤":{"ha":793,"x_min":0,"x_max":0,"o":"m 728 0 l 728 375 l 306 542 l 728 710 l 728 917 l 43 626 l 43 458 l 711 174 l 43 174 l 43 0 z "},"±":{"ha":775,"x_min":0,"x_max":0,"o":"m 732 694 l 474 694 l 474 953 l 301 953 l 301 694 l 43 694 l 43 522 l 301 522 l 301 264 l 475 264 l 475 521 l 732 521 z m 46 0 l 731 0 l 731 174 l 46 174 z "},"≈":{"ha":865,"x_min":0,"x_max":0,"o":"m 563 490 b 813 744 703 490 803 592 l 643 769 b 563 669 633 703 606 669 b 460 715 525 669 503 688 b 296 767 408 749 356 767 b 47 513 156 767 56 665 l 215 488 b 296 588 226 554 254 588 b 400 542 335 588 357 569 b 563 490 451 508 503 490 z m 47 183 l 215 158 b 296 258 226 225 254 258 b 400 213 335 258 357 240 b 563 161 451 179 503 161 b 813 415 703 161 803 263 l 643 440 b 563 340 633 374 606 340 b 460 386 525 340 503 358 b 296 438 408 419 356 438 b 47 183 156 438 56 336 z "},"~":{"ha":858,"x_min":0,"x_max":0,"o":"m 563 321 b 813 575 703 321 803 422 l 643 600 b 563 500 633 533 606 500 b 460 546 525 500 503 518 b 296 597 408 579 356 597 b 47 343 156 597 56 496 l 215 318 b 296 418 226 385 254 418 b 400 372 335 418 357 400 b 563 321 451 339 503 321 z "},"¬":{"ha":835,"x_min":0,"x_max":0,"o":"m 563 175 l 765 175 l 765 578 l 58 578 l 58 404 l 563 404 z "},"^":{"ha":833,"x_min":0,"x_max":0,"o":"m 50 567 l 249 567 l 418 801 l 586 567 l 785 567 l 501 972 l 333 972 z "},"∞":{"ha":1331,"x_min":0,"x_max":0,"o":"m 381 374 b 244 499 290 374 244 419 b 381 624 244 578 290 624 b 557 499 442 624 507 582 b 381 374 507 415 442 374 z m 44 499 b 381 176 44 310 183 176 b 665 321 486 176 585 228 b 951 176 746 228 843 176 b 1288 499 1149 176 1288 310 b 951 821 1288 688 1149 821 b 665 676 843 821 746 771 b 381 821 585 771 486 821 b 44 499 183 821 44 688 z m 775 499 b 951 624 826 582 890 624 b 1088 499 1040 624 1088 578 b 951 374 1088 419 1040 374 b 775 499 890 374 826 415 z "},"∫":{"ha":465,"x_min":0,"x_max":0,"o":"m 38 -264 b 321 11 210 -264 321 -157 l 321 681 b 425 807 321 761 356 807 b 457 806 436 807 442 807 l 453 981 b 400 983 453 981 415 983 b 118 708 229 983 118 876 l 118 39 b 14 -87 118 -42 82 -87 b -18 -86 -6 -87 -10 -87 l -14 -261 b 38 -264 -3 -262 24 -264 z "},"Ω":{"ha":1021,"x_min":0,"x_max":0,"o":"m 415 0 l 415 189 l 414 189 l 414 251 b 267 521 326 311 267 419 b 511 797 267 688 364 797 b 754 521 658 797 754 688 b 607 251 754 419 696 311 l 607 0 l 968 0 l 968 189 l 794 189 b 975 532 904 264 975 382 b 513 983 975 792 779 983 b 46 532 243 983 46 792 b 228 189 46 382 118 264 l 53 189 l 53 0 z "},"∆":{"ha":960,"x_min":0,"x_max":0,"o":"m 583 972 l 376 972 l 8 0 l 951 0 z m 300 183 l 481 685 l 661 183 z "},"∏":{"ha":963,"x_min":0,"x_max":0,"o":"m 89 0 l 314 0 l 314 785 l 649 785 l 649 0 l 874 0 l 874 972 l 89 972 z "},"∑":{"ha":769,"x_min":0,"x_max":0,"o":"m 51 0 l 711 0 l 711 189 l 321 189 l 536 404 l 536 568 l 321 785 l 711 785 l 711 972 l 51 972 l 51 796 l 338 486 l 51 176 z "},"√":{"ha":835,"x_min":0,"x_max":0,"o":"m 318 0 l 511 0 l 828 972 l 626 972 l 414 275 l 319 556 l 31 556 l 31 367 l 189 367 z "},"µ":{"ha":817,"x_min":0,"x_max":0,"o":"m 72 -264 l 276 -264 l 276 22 b 376 -11 307 1 340 -11 b 544 93 456 -11 521 31 l 544 0 l 747 0 l 747 700 l 544 700 l 544 393 b 396 169 544 249 493 169 b 276 297 324 169 276 221 l 276 700 l 72 700 z "},"∂":{"ha":844,"x_min":0,"x_max":0,"o":"m 289 981 l 269 788 b 329 796 289 793 308 796 b 594 556 479 796 579 697 b 383 657 550 619 474 657 b 44 324 186 657 44 518 b 421 -11 44 129 201 -11 b 800 447 643 -11 800 178 b 336 983 800 813 574 983 b 289 981 321 983 304 982 z m 258 336 b 414 492 257 426 324 492 b 574 336 507 492 574 426 b 414 178 574 243 507 178 b 258 336 324 178 260 243 z "},"%":{"ha":1071,"x_min":0,"x_max":0,"o":"m 129 0 l 290 0 l 940 972 l 779 972 z m 29 739 b 257 494 29 592 118 494 b 483 739 394 494 483 592 b 257 983 483 886 394 983 b 29 739 118 983 29 886 z m 179 739 b 257 849 179 808 207 849 b 332 739 306 849 332 808 b 257 629 332 669 306 629 b 179 739 207 629 179 669 z m 589 233 b 817 -11 589 86 678 -11 b 1043 233 954 -11 1043 86 b 817 478 1043 381 954 478 b 589 233 678 478 589 381 z m 739 233 b 817 343 739 303 767 343 b 892 233 865 343 892 303 b 817 124 892 164 865 124 b 739 233 767 124 739 164 z "},"‰":{"ha":1375,"x_min":0,"x_max":0,"o":"m 129 0 l 290 0 l 940 972 l 779 972 z m 29 739 b 257 494 29 592 118 494 b 483 739 394 494 483 592 b 257 983 483 886 394 983 b 29 739 118 983 29 886 z m 179 739 b 257 849 179 808 207 849 b 332 739 306 849 332 808 b 257 629 332 669 306 629 b 179 739 207 629 179 669 z m 589 233 b 817 -11 589 86 678 -11 b 968 43 878 -11 929 8 b 1121 -11 1007 8 1058 -11 b 1347 233 1258 -11 1347 86 b 1121 478 1347 381 1258 478 b 968 424 1058 478 1007 458 b 817 478 929 458 878 478 b 589 233 678 478 589 381 z m 739 233 b 817 343 739 303 767 343 b 892 233 865 343 892 303 b 817 124 892 164 865 124 b 739 233 767 124 739 164 z m 1043 233 b 1121 343 1043 303 1071 343 b 1196 233 1169 343 1196 303 b 1121 124 1196 164 1169 124 b 1043 233 1071 124 1043 164 z "},"↑":{"ha":915,"x_min":0,"x_max":0,"o":"m 871 489 l 457 901 l 44 488 l 150 382 l 371 603 l 371 -18 l 544 -18 l 544 601 l 764 383 z "},"↗":{"ha":835,"x_min":0,"x_max":0,"o":"m 754 103 l 753 688 l 169 686 l 169 538 l 482 538 l 42 99 l 165 -25 l 603 413 l 604 104 z "},"→":{"ha":1008,"x_min":0,"x_max":0,"o":"m 551 -42 l 964 372 l 550 785 l 444 679 l 665 458 l 44 458 l 44 285 l 664 285 l 446 65 z "},"↘":{"ha":835,"x_min":0,"x_max":0,"o":"m 171 -8 l 756 -7 l 754 576 l 606 576 l 606 265 l 167 704 l 43 581 l 481 143 l 172 142 z "},"↓":{"ha":915,"x_min":0,"x_max":0,"o":"m 44 403 l 458 -10 l 871 404 l 765 510 l 544 289 l 544 910 l 371 910 l 371 290 l 151 508 z "},"↙":{"ha":835,"x_min":0,"x_max":0,"o":"m 664 -8 l 663 142 l 354 143 l 792 581 l 668 704 l 229 265 l 229 576 l 81 576 l 79 -7 z "},"←":{"ha":1008,"x_min":0,"x_max":0,"o":"m 457 -42 l 563 65 l 344 285 l 964 285 l 964 458 l 343 458 l 564 679 l 458 785 l 44 372 z "},"↖":{"ha":836,"x_min":0,"x_max":0,"o":"m 81 103 l 231 104 l 232 413 l 669 -25 l 792 99 l 351 538 l 665 538 l 665 686 l 81 688 z "},"↔":{"ha":1481,"x_min":0,"x_max":0,"o":"m 1024 -42 l 1436 372 l 1022 785 l 917 679 l 1138 458 l 343 458 l 564 679 l 457 785 l 44 372 l 456 -42 l 563 65 l 344 285 l 1136 285 l 918 65 z "},"↕":{"ha":915,"x_min":0,"x_max":0,"o":"m 44 156 l 458 -257 l 871 157 l 765 263 l 544 42 l 544 836 l 765 615 l 871 722 l 458 1135 l 44 724 l 151 617 l 371 835 l 371 43 l 151 261 z "},"●":{"ha":1086,"x_min":0,"x_max":0,"o":"m 546 -11 b 1042 486 831 -11 1042 200 b 546 983 1042 772 831 983 b 46 486 258 983 46 772 b 546 -11 46 200 258 -11 z "},"○":{"ha":1086,"x_min":0,"x_max":0,"o":"m 543 -11 b 1042 486 829 -11 1042 200 b 543 983 1042 772 829 983 b 46 486 257 983 46 772 b 543 -11 46 200 257 -11 z m 153 486 b 543 879 153 711 318 879 b 933 486 767 879 933 711 b 543 93 933 261 767 93 b 153 486 318 93 153 261 z "},"◊":{"ha":833,"x_min":0,"x_max":0,"o":"m 326 0 l 507 0 l 774 486 l 507 972 l 326 972 l 60 486 z m 250 486 l 415 800 l 582 486 l 415 172 z "},"̈":{"ha":0,"x_min":0,"x_max":0,"o":"m 76 983 l 76 792 l 263 792 l 263 983 z m 372 792 l 560 792 l 560 983 l 372 983 z "},"̇":{"ha":0,"x_min":0,"x_max":0,"o":"m 85 983 l 85 788 l 300 788 l 300 983 z "},"̀":{"ha":0,"x_min":0,"x_max":0,"o":"m 375 778 l 294 983 l 63 983 l 232 778 z "},"́":{"ha":0,"x_min":0,"x_max":0,"o":"m 69 778 l 213 778 l 382 983 l 150 983 z "},"̋":{"ha":0,"x_min":0,"x_max":0,"o":"m 69 778 l 226 778 l 319 983 l 150 983 z m 317 778 l 472 778 l 578 983 l 397 983 z "},"̂":{"ha":0,"x_min":0,"x_max":0,"o":"m 225 983 l 69 778 l 214 778 l 314 876 l 414 778 l 558 778 l 401 983 z "},"̌":{"ha":0,"x_min":0,"x_max":0,"o":"m 225 778 l 401 778 l 558 983 l 414 983 l 314 885 l 214 983 l 69 983 z "},"̆":{"ha":0,"x_min":0,"x_max":0,"o":"m 268 774 b 469 967 385 774 469 856 l 324 967 b 268 901 324 926 303 901 b 215 967 235 901 215 926 l 69 967 b 268 774 69 856 154 774 z "},"̊":{"ha":0,"x_min":0,"x_max":0,"o":"m 236 749 b 403 907 333 749 403 817 b 236 1064 403 997 333 1064 b 69 907 140 1064 69 997 b 236 749 69 817 140 749 z m 174 907 b 236 967 174 942 200 967 b 299 907 272 967 299 942 b 236 847 299 871 272 847 b 174 907 200 847 174 871 z "},"̃":{"ha":0,"x_min":0,"x_max":0,"o":"m 69 801 l 207 781 b 258 853 214 829 231 853 b 331 821 285 853 299 842 b 453 783 367 797 407 783 b 642 979 561 783 638 861 l 503 999 b 453 926 497 950 481 926 b 382 958 426 926 414 939 b 258 996 340 985 301 996 b 69 801 150 996 74 917 z "},"̄":{"ha":0,"x_min":0,"x_max":0,"o":"m 69 807 l 463 807 l 463 960 l 69 960 z "},"̒":{"ha":0,"x_min":0,"x_max":0,"o":"m 315 983 l 158 983 l 69 778 l 281 778 z "},"̦":{"ha":0,"x_min":0,"x_max":0,"o":"m 69 -264 l 213 -264 l 338 -58 l 119 -58 z "},"̧":{"ha":0,"x_min":0,"x_max":0,"o":"m 385 0 l 278 47 l 69 -206 l 301 -206 z "},"̨":{"ha":0,"x_min":0,"x_max":0,"o":"m 242 -264 b 324 -254 276 -264 313 -258 l 306 -121 b 274 -125 301 -122 289 -125 b 225 -81 244 -125 225 -110 b 267 0 225 -50 250 -18 l 132 14 b 69 -121 94 -21 69 -76 b 242 -264 69 -207 139 -264 z "},"̵":{"ha":0,"x_min":0,"x_max":0,"o":"m 69 774 l 528 774 l 528 910 l 69 910 z "},"̶":{"ha":0,"x_min":0,"x_max":0,"o":"m 69 721 l 1063 721 l 1063 881 l 69 881 z "},"¨":{"ha":632,"x_min":0,"x_max":0,"o":"m 76 983 l 76 792 l 263 792 l 263 983 z m 372 792 l 560 792 l 560 983 l 372 983 z "},"˙":{"ha":385,"x_min":0,"x_max":0,"o":"m 85 983 l 85 788 l 300 788 l 300 983 z "},"`":{"ha":451,"x_min":0,"x_max":0,"o":"m 375 778 l 294 983 l 63 983 l 232 778 z "},"´":{"ha":451,"x_min":0,"x_max":0,"o":"m 69 778 l 213 778 l 382 983 l 150 983 z "},"˝":{"ha":647,"x_min":0,"x_max":0,"o":"m 69 778 l 226 778 l 319 983 l 150 983 z m 317 778 l 472 778 l 578 983 l 397 983 z "},"ˆ":{"ha":628,"x_min":0,"x_max":0,"o":"m 225 983 l 69 778 l 214 778 l 314 876 l 414 778 l 558 778 l 401 983 z "},"ˇ":{"ha":628,"x_min":0,"x_max":0,"o":"m 225 778 l 401 778 l 558 983 l 414 983 l 314 885 l 214 983 l 69 983 z "},"˘":{"ha":539,"x_min":0,"x_max":0,"o":"m 268 774 b 469 967 385 774 469 856 l 324 967 b 268 901 324 926 303 901 b 215 967 235 901 215 926 l 69 967 b 268 774 69 856 154 774 z "},"˚":{"ha":472,"x_min":0,"x_max":0,"o":"m 236 749 b 403 907 333 749 403 817 b 236 1064 403 997 333 1064 b 69 907 140 1064 69 997 b 236 749 69 817 140 749 z m 174 907 b 236 967 174 942 200 967 b 299 907 272 967 299 942 b 236 847 299 871 272 847 b 174 907 200 847 174 871 z "},"˜":{"ha":711,"x_min":0,"x_max":0,"o":"m 69 801 l 207 781 b 258 853 214 829 231 853 b 331 821 285 853 299 842 b 453 783 367 797 407 783 b 642 979 561 783 638 861 l 503 999 b 453 926 497 950 481 926 b 382 958 426 926 414 939 b 258 996 340 985 301 996 b 69 801 150 996 74 917 z "},"¯":{"ha":532,"x_min":0,"x_max":0,"o":"m 69 807 l 463 807 l 463 960 l 69 960 z "},"¸":{"ha":454,"x_min":0,"x_max":0,"o":"m 385 0 l 278 47 l 69 -206 l 301 -206 z "},"˛":{"ha":393,"x_min":0,"x_max":0,"o":"m 242 -264 b 324 -254 276 -264 313 -258 l 306 -121 b 274 -125 301 -122 289 -125 b 225 -81 244 -125 225 -110 b 267 0 225 -50 250 -18 l 132 14 b 69 -121 94 -21 69 -76 b 242 -264 69 -207 139 -264 z "},"ʼ":{"ha":372,"x_min":0,"x_max":0,"o":"m 69 778 l 185 778 l 303 1044 l 113 1044 z "}}}
